<svg width="56" height="56" viewBox="0 0 56 56" fill="none" xmlns="http://www.w3.org/2000/svg">
<rect width="56" height="56" rx="28" fill="black"/>
<rect x="56" y="56" width="56" height="56" rx="28" transform="rotate(180 56 56)" fill="black"/>
<rect x="56" y="56" width="56" height="56" rx="28" transform="rotate(180 56 56)" fill="black"/>
<path d="M25.0564 34.192C24.1071 34.192 23.2751 33.936 22.5604 33.424C21.8564 32.9013 21.3071 32.1813 20.9124 31.264C20.5178 30.336 20.3204 29.2587 20.3204 28.032C20.3204 26.8053 20.5178 25.7333 20.9124 24.816C21.3071 23.888 21.8564 23.168 22.5604 22.656C23.2644 22.144 24.0911 21.888 25.0404 21.888C25.9898 21.888 26.8164 22.144 27.5204 22.656C28.2244 23.168 28.7738 23.888 29.1684 24.816C29.5738 25.7333 29.7764 26.8053 29.7764 28.032C29.7764 29.2587 29.5791 30.336 29.1844 31.264C28.7898 32.192 28.2351 32.912 27.5204 33.424C26.8164 33.936 25.9951 34.192 25.0564 34.192ZM25.0564 32.736C25.6964 32.736 26.2511 32.544 26.7204 32.16C27.1898 31.7653 27.5524 31.216 27.8084 30.512C28.0751 29.808 28.2084 28.9813 28.2084 28.032C28.2084 27.0827 28.0751 26.256 27.8084 25.552C27.5524 24.848 27.1844 24.304 26.7044 23.92C26.2351 23.536 25.6804 23.344 25.0404 23.344C24.4004 23.344 23.8458 23.536 23.3764 23.92C22.9071 24.304 22.5391 24.848 22.2724 25.552C22.0164 26.256 21.8884 27.0827 21.8884 28.032C21.8884 28.9707 22.0164 29.792 22.2724 30.496C22.5391 31.2 22.9071 31.7493 23.3764 32.144C23.8564 32.5387 24.4164 32.736 25.0564 32.736ZM33.6746 34V23.44H31.4186V22.08H35.2586V34H33.6746Z" fill="#FFC501"/>
</svg>
