<svg width="250" height="560" viewBox="0 0 250 560" fill="none" xmlns="http://www.w3.org/2000/svg">
<path d="M207.583 3.53152V21.6517C202.372 22.3235 192.005 22.7865 180.067 22.7865C167.294 22.7865 156.318 22.2599 151.534 21.5155V3.53152C151.534 2.65093 151.861 1.83389 152.405 1.22565C157.68 2.55107 167.639 3.44981 179.068 3.44981C191.079 3.44981 201.482 2.46029 206.503 1.01685C207.165 1.64324 207.574 2.55107 207.574 3.5406H207.583V3.53152Z" fill="#FFC501"/>
<path d="M211.341 42.3589C211.341 42.7221 209.862 43.3576 207.574 43.6481C202.363 44.3198 191.996 44.7828 180.058 44.7828C167.285 44.7828 156.309 44.2563 151.525 43.5119C149.873 43.2577 148.475 43.1124 148.411 42.5133C148.384 42.2137 148.538 41.7235 149.827 41.5419V21.2248C154.611 21.9783 167.285 22.7863 180.049 22.7863C191.987 22.7863 203.879 21.8058 209.09 21.134V41.1697C211.532 41.4239 211.323 42.0049 211.323 42.3589H211.341Z" fill="#ED5E3B"/>
<path d="M207.583 43.6481V116.964H151.543V43.512C156.327 44.2655 167.303 44.7829 180.076 44.7829C192.014 44.7829 202.372 44.329 207.592 43.6481H207.583Z" fill="#FF884D"/>
<path d="M249.052 216.098V534.545C249.052 540.727 240.392 560 181.093 560C117.336 560 112.507 540.718 112.507 534.527V216.098C112.507 200.738 118.816 186.848 128.984 176.889C134.839 170.235 150.572 151.443 151.57 140.114H207.537C208.418 150.771 223.951 168.056 231.159 175.546C242.162 185.586 249.061 200.039 249.061 216.107H249.052V216.098Z" fill="#FF884D"/>
<path d="M206.512 1.00768C201.491 2.45112 191.088 3.44065 179.077 3.44065C167.067 3.44065 157.68 2.54191 152.414 1.21648C153.059 0.46299 154.012 0 155.074 0H204.051C205.014 0 205.885 0.372208 206.512 1.00768Z" fill="#ED5E3B"/>
<path d="M137.372 250.005V379.261H136.9C131.135 377.99 125.479 376.365 120.023 374.323V247.536C124.227 248.271 130.091 249.179 137.372 250.005Z" fill="#FFC501"/>
<path d="M120.023 247.536V374.323C117.454 373.37 114.94 372.316 112.47 371.173V246.056C112.47 246.056 115.112 246.683 120.023 247.536Z" fill="#FEDC67"/>
<path d="M249.052 246.746V373.669C249.052 373.669 188.809 390.754 136.9 379.261H137.372V250.005C161.711 252.792 201.918 254.753 249.052 246.746Z" fill="#FEDC67"/>
<path d="M207.583 110.909V140.104C207.583 140.104 198.831 143.917 181.301 143.917C160.113 143.917 151.534 140.104 151.534 140.104V110.909C151.534 110.909 163.844 114.032 179.822 114.032C193.866 114.032 207.583 110.909 207.583 110.909Z" fill="#ED5E3B"/>
<path d="M121.185 549.088L125.234 543.459C129.846 539.501 132.47 533.709 132.406 527.636L130.509 363.22C130.418 355.022 127.458 347.106 122.139 340.86L112.016 328.95L113.632 541.544L121.185 549.097V549.088Z" fill="#FFC501"/>
<path d="M122.747 532.321C122.747 532.321 120.868 537.795 108.957 542.479C100.024 546.001 85.4534 549.088 61.7955 549.088C38.1377 549.088 23.7668 546.074 14.6613 542.606C2.29679 537.885 0.15433 532.33 0.15433 532.33L0 363.928C0 348.132 9.54122 344.201 12.8366 336.784C18.5922 339.444 36.6216 342.776 61.6231 342.776C84.7998 342.776 104.409 340.379 110.9 337.075C112.897 343.793 122.602 350.411 122.602 363.901L122.756 532.33H122.747V532.321Z" fill="#FFC501"/>
<path d="M108.957 542.479C108.467 550.876 87.5505 557.631 61.8137 557.631C36.0769 557.631 15.3422 550.931 14.6613 542.597C23.7668 546.065 38.4009 549.079 61.7955 549.079C85.1901 549.079 100.024 546.001 108.957 542.47V542.479Z" fill="#E5AA03"/>
<path d="M113.169 334.687C113.169 335.523 112.37 336.322 110.891 337.075C104.409 340.37 84.7998 342.776 61.614 342.776C36.6034 342.776 15.7598 339.98 11.0573 336.267C10.4036 335.768 10.0677 335.232 10.0677 334.697C10.0677 333.734 11.139 332.808 13.109 331.964C20.6257 334.96 39.2815 337.093 61.0965 337.093C82.9115 337.093 102.457 334.869 109.611 331.737C111.898 332.663 113.16 333.653 113.16 334.697H113.169V334.687Z" fill="#FFDC67"/>
<path d="M121.993 358.264C121.993 358.264 121.93 358.3 121.893 358.318C113.959 362.349 89.9744 365.281 61.623 365.281C33.2717 365.281 7.52584 362.122 0.544678 357.846C0.953198 355.667 1.5796 353.77 2.33309 352.072C5.3743 345.318 10.5761 341.868 12.8275 336.775C18.5831 339.435 36.6125 342.767 61.623 342.767C84.7998 342.767 104.409 340.37 110.9 337.066C112.198 341.442 116.773 345.781 119.796 352C120.722 353.897 121.503 355.967 121.993 358.273V358.264Z" fill="#FFD134"/>
<path d="M109.62 331.719C107.305 332.736 103.737 333.652 99.2069 334.424C89.7656 332.754 75.9576 331.692 60.5791 331.692C45.2005 331.692 31.8918 332.708 22.4686 334.333C18.5287 333.634 15.3331 332.826 13.118 331.946C20.2717 328.823 39.2997 326.59 61.623 326.59C83.9464 326.59 102.103 328.723 109.62 331.719Z" fill="#FFD134"/>
<path d="M99.2069 334.424C89.7837 336.049 76.2027 337.075 61.1056 337.075C46.0085 337.075 31.91 336.022 22.4686 334.342C31.8918 332.727 45.482 331.701 60.5791 331.701C75.6762 331.701 89.7656 332.754 99.2069 334.433V334.424Z" fill="#FFC501"/>
<path d="M61.6049 447.484C61.6049 485.84 42.4135 516.924 18.7375 516.924C12.074 516.924 5.76467 514.464 0.136161 510.07L0.0272217 384.99C5.68296 380.532 12.0286 378.027 18.7465 378.027C42.4226 378.027 61.614 409.12 61.614 447.475H61.6049V447.484Z" fill="#ED5E3B"/>
<path opacity="0.8" d="M96.6923 403.927C89.4388 404.363 94.9311 389.865 96.6923 389.493C98.1993 389.175 103.501 403.518 96.6923 403.927Z" fill="#CEC095"/>
<path opacity="0.8" d="M97.2824 402.647C89.9744 403.092 95.5122 388.476 97.2824 388.095C98.7985 387.768 104.146 402.229 97.2824 402.647Z" fill="#FEF9E5"/>
<path opacity="0.8" d="M60.0889 520.7C52.8353 521.136 58.3277 506.638 60.0889 506.266C61.5958 505.948 66.8975 520.292 60.0889 520.7Z" fill="#CEC095"/>
<path opacity="0.8" d="M60.6789 519.429C53.3709 519.874 58.9086 505.258 60.6789 504.877C62.195 504.55 67.542 519.012 60.6789 519.429Z" fill="#FEF9E5"/>
<path opacity="0.8" d="M96.7286 385.979C96.5016 386.161 96.1748 386.052 96.1113 385.771C95.7935 384.354 94.105 381.386 96.9101 375.667C96.9101 375.667 96.4018 378.272 97.5729 381.204C98.7076 384.037 97.3822 385.471 96.7286 385.988V385.979Z" fill="#CEC095"/>
<path opacity="0.8" d="M96.7286 385.035C96.5016 385.217 96.1748 385.108 96.1113 384.826C95.7935 383.41 94.105 380.442 96.9101 374.722C96.9101 374.722 96.4018 377.328 97.5729 380.26C98.7076 383.093 97.3822 384.527 96.7286 385.044V385.035Z" fill="#FEF9E5"/>
<path opacity="0.8" d="M59.8801 501.255C59.6531 501.436 59.3263 501.327 59.2627 501.046C58.945 499.63 57.2565 496.661 60.0616 490.942C60.0616 490.942 59.5532 493.547 60.7243 496.48C61.8591 499.312 60.5337 500.746 59.8801 501.264V501.255Z" fill="#CEC095"/>
<path opacity="0.8" d="M59.8801 500.311C59.6531 500.492 59.3263 500.383 59.2627 500.102C58.945 498.686 57.2565 495.717 60.0616 489.998C60.0616 489.998 59.5532 492.603 60.7243 495.536C61.8591 498.368 60.5337 499.802 59.8801 500.32V500.311Z" fill="#FEF9E5"/>
</svg>
