<svg width="56" height="56" viewBox="0 0 56 56" fill="none" xmlns="http://www.w3.org/2000/svg">
<rect width="56" height="56" rx="28" fill="black"/>
<rect x="56" y="56" width="56" height="56" rx="28" transform="rotate(180 56 56)" fill="black"/>
<rect x="56" y="56" width="56" height="56" rx="28" transform="rotate(180 56 56)" fill="black"/>
<g clip-path="url(#clip0_1_851)">
<path d="M38.7418 26.5095C38.7427 27.3474 38.6097 28.1801 38.3478 28.9761C37.7513 31.1831 36.4389 33.1295 34.6165 34.51H34.6144L28.3985 39.7177L21.6095 34.0356C19.7844 32.1934 18.2576 29.6972 18.1176 26.7965C17.9907 24.1864 18.861 21.6256 20.552 19.6333C22.243 17.641 24.6283 16.3662 27.2244 16.0674C29.8205 15.7685 32.4331 16.4679 34.5326 18.0238C36.6321 19.5797 38.0615 21.8756 38.5311 24.4463C38.5421 24.5066 38.5367 24.5689 38.5154 24.6263C38.6663 25.2427 38.7424 25.875 38.742 26.5096L38.7418 26.5095Z" fill="#FFC501"/>
<path d="M28.4585 28.6471C30.6966 28.6471 32.5107 26.833 32.5107 24.5949C32.5107 22.357 30.6966 20.5427 28.4585 20.5427C26.2206 20.5427 24.4064 22.3568 24.4064 24.5949C24.4064 26.8328 26.2205 28.6471 28.4585 28.6471Z" fill="black"/>
</g>
<defs>
<clipPath id="clip0_1_851">
<rect width="21" height="24" fill="white" transform="translate(17.5 16)"/>
</clipPath>
</defs>
</svg>
