<svg width="117" height="114" viewBox="0 0 117 114" fill="none" xmlns="http://www.w3.org/2000/svg">
<path d="M99.1326 71.5311C107.768 64.6959 109.228 52.1541 102.393 43.5182C95.5576 34.8824 83.0158 33.4228 74.38 40.258C65.7441 47.0933 64.2845 59.6351 71.1198 68.2709C77.955 76.9068 90.4968 78.3664 99.1326 71.5311Z" fill="#333E48"/>
<path d="M96.9913 68.8256C104.133 63.173 105.34 52.8011 99.6874 45.6595C94.0348 38.5178 83.663 37.3107 76.5213 42.9633C69.3796 48.616 68.1725 58.9878 73.8252 66.1295C79.4778 73.2712 89.8496 74.4783 96.9913 68.8256Z" fill="white"/>
<path d="M92.4464 63.0835C96.4167 59.9409 97.0878 54.1748 93.9453 50.2044C90.8027 46.2341 85.0366 45.563 81.0662 48.7055C77.0959 51.8481 76.4248 57.6142 79.5673 61.5846C82.7099 65.5549 88.476 66.226 92.4464 63.0835Z" fill="#E94F3D"/>
<path d="M79.5673 61.585C79.933 62.0471 80.3355 62.4623 80.7651 62.8343C82.687 63.1451 84.7267 62.6867 86.3736 61.3832C89.4861 58.9196 90.0123 54.3996 87.5489 51.2873C85.9736 49.2969 83.5585 48.3699 81.2075 48.5996C81.1607 48.6354 81.1124 48.6691 81.0662 48.7056C77.0959 51.8482 76.4249 57.6149 79.5673 61.585Z" fill="#00783E"/>
<path d="M80.4037 49.2842C80.7805 50.8683 81.4979 52.3969 82.5751 53.7578C85.7975 57.8291 91.2164 59.136 95.8102 57.33C96.1972 54.8875 95.6009 52.2968 93.9452 50.2049C90.8028 46.2347 85.0366 45.5631 81.0662 48.7057C80.8336 48.8898 80.6138 49.0835 80.4037 49.2842Z" fill="#FF8189"/>
<path d="M85.5576 43.0909C85.9609 42.7717 86.0292 42.1855 85.7099 41.7822C85.3908 41.379 84.8045 41.3106 84.4012 41.6299L83.2177 42.5666C82.8144 42.8858 82.7463 43.4718 83.0656 43.8752C83.3847 44.2783 83.9706 44.3471 84.3741 44.0277L85.5576 43.0909Z" fill="#D1D3D3"/>
<path d="M85.0229 70.4806C85.5338 70.54 85.9964 70.1739 86.0559 69.663C86.1152 69.1516 85.7492 68.6892 85.2383 68.6301L83.7393 68.4558C83.2281 68.3959 82.7655 68.7621 82.7061 69.2735C82.6467 69.7844 83.0127 70.2468 83.5234 70.3061L85.0229 70.4806Z" fill="#D1D3D3"/>
<path d="M99.835 61.3536C100.346 61.4132 100.809 61.047 100.868 60.536C100.928 60.025 100.562 59.5625 100.05 59.503L98.5514 59.3288C98.0404 59.2691 97.5777 59.6353 97.5186 60.1462C97.4588 60.6573 97.8251 61.1202 98.3362 61.1791L99.835 61.3536Z" fill="#D1D3D3"/>
<path d="M75.1293 51.6957C75.1886 51.185 74.8225 50.7226 74.3117 50.6628C73.8005 50.6033 73.338 50.9696 73.2786 51.4805L73.1036 52.9798C73.0443 53.4908 73.4106 53.9537 73.9214 54.0131C74.4325 54.0724 74.8953 53.7061 74.955 53.1951L75.1293 51.6957Z" fill="#D1D3D3"/>
<path d="M97.8698 46.1362C97.5507 45.7331 96.9646 45.6645 96.561 45.9839C96.1577 46.3031 96.0895 46.8893 96.4087 47.2927L97.3456 48.4763C97.6647 48.8795 98.2505 48.9476 98.654 48.6282C99.0574 48.309 99.1256 47.7228 98.8064 47.3195L97.8698 46.1362Z" fill="#D1D3D3"/>
<path d="M73.4246 56.0316C72.914 55.9725 72.4514 56.3387 72.3916 56.8491C72.3326 57.3606 72.6989 57.8229 73.2095 57.8825L74.7092 58.0569C75.2201 58.1163 75.6821 57.7506 75.742 57.2394C75.8014 56.7286 75.4353 56.2659 74.9241 56.2061L73.4246 56.0316Z" fill="#D1D3D3"/>
<path d="M91.0334 43.9631C90.5223 43.9038 90.0597 44.27 90.0004 44.7807C89.9409 45.2919 90.3071 45.7542 90.8183 45.8141L92.3175 45.9882C92.8284 46.0476 93.2908 45.6816 93.3503 45.1708C93.4097 44.6599 93.0437 44.1971 92.5327 44.1378L91.0334 43.9631Z" fill="#D1D3D3"/>
<path d="M63.5804 99.6708C72.2162 92.8355 73.6759 80.2937 66.8406 71.6579C60.0053 63.0221 47.4635 61.5624 38.8277 68.3977C30.1919 75.233 28.7322 87.7748 35.5675 96.4106C42.4028 105.046 54.9446 106.506 63.5804 99.6708Z" fill="#333E48"/>
<path d="M61.4391 96.9653C68.5807 91.3126 69.7878 80.9408 64.1352 73.7991C58.4826 66.6574 48.1107 65.4503 40.969 71.103C33.8274 76.7556 32.6203 87.1275 38.2729 94.2691C43.9256 101.411 54.2974 102.618 61.4391 96.9653Z" fill="white"/>
<path d="M56.8941 91.2231C60.8645 88.0806 61.5356 82.3144 58.393 78.3441C55.2505 74.3737 49.4843 73.7026 45.514 76.8452C41.5436 79.9877 40.8725 85.7539 44.0151 89.7242C47.1576 93.6946 52.9238 94.3657 56.8941 91.2231Z" fill="#E94F3D"/>
<path d="M44.0152 89.7244C44.3809 90.1865 44.7832 90.6018 45.2131 90.9737C47.1347 91.2847 49.1748 90.8259 50.8215 89.5226C53.9338 87.0592 54.4602 82.539 51.9968 79.4267C50.4215 77.4363 48.0066 76.5091 45.6554 76.739C45.6084 76.775 45.5604 76.8085 45.514 76.8452C41.5436 79.9877 40.8729 85.7543 44.0152 89.7244Z" fill="#00783E"/>
<path d="M44.8516 77.4236C45.2284 79.0077 45.9458 80.5363 47.023 81.8972C50.2455 85.9685 55.6641 87.2755 60.2581 85.4694C60.645 83.0271 60.0489 80.4362 58.3932 78.3443C55.2508 74.3741 49.4845 73.7025 45.514 76.8452C45.2813 77.0293 45.0617 77.2229 44.8516 77.4236Z" fill="#FF8189"/>
<path d="M50.0056 71.2306C50.4089 70.9113 50.4772 70.3252 50.1579 69.9218C49.8388 69.5187 49.2527 69.4501 48.8492 69.7695L47.6657 70.7062C47.2624 71.0255 47.1943 71.6115 47.5136 72.0148C47.8327 72.418 48.4186 72.4867 48.8221 72.1673L50.0056 71.2306Z" fill="#D1D3D3"/>
<path d="M49.4709 98.6201C49.9817 98.6795 50.4444 98.3134 50.5036 97.8027C50.5632 97.2911 50.1971 96.8286 49.686 96.7697L48.187 96.5954C47.6759 96.5356 47.2132 96.9018 47.1539 97.4132C47.0944 97.924 47.4604 98.3865 47.9711 98.4457L49.4709 98.6201Z" fill="#D1D3D3"/>
<path d="M64.283 89.4929C64.794 89.5526 65.2564 89.1866 65.3159 88.6753C65.3755 88.1643 65.0093 87.7021 64.4983 87.6424L62.9993 87.4681C62.4883 87.4085 62.0257 87.7746 61.9664 88.2857C61.9067 88.7967 62.273 89.2595 62.7839 89.3186L64.283 89.4929Z" fill="#D1D3D3"/>
<path d="M39.577 79.8353C39.6361 79.3247 39.2701 78.8623 38.7595 78.8023C38.2483 78.7428 37.786 79.109 37.7263 79.6201L37.5515 81.1192C37.4922 81.6302 37.8585 82.0931 38.3694 82.1525C38.8804 82.2118 39.3429 81.8458 39.4027 81.3346L39.577 79.8353Z" fill="#D1D3D3"/>
<path d="M62.3177 74.2756C61.9986 73.8725 61.4125 73.8039 61.009 74.1233C60.6056 74.4426 60.5374 75.0287 60.8567 75.4321L61.7935 76.6157C62.1126 77.0189 62.6984 77.087 63.1018 76.7678C63.5053 76.4484 63.5733 75.8624 63.2541 75.459L62.3175 74.2758L62.3177 74.2756Z" fill="#D1D3D3"/>
<path d="M37.8725 84.1711C37.3618 84.1122 36.8994 84.4782 36.8396 84.9887C36.7804 85.5003 37.1466 85.9626 37.6575 86.022L39.157 86.1965C39.6679 86.256 40.1303 85.89 40.19 85.379C40.2494 84.8681 39.8832 84.4055 39.3721 84.3456L37.8725 84.1711Z" fill="#D1D3D3"/>
<path d="M55.4811 72.1028C54.9702 72.0433 54.5078 72.4094 54.4482 72.9204C54.3887 73.4316 54.7549 73.8939 55.266 73.9537L56.7653 74.1278C57.2763 74.1871 57.7386 73.8213 57.798 73.3104C57.8577 72.7994 57.4915 72.3368 56.9804 72.2775L55.4811 72.1028Z" fill="#D1D3D3"/>
<path d="M84.5786 20.0847C85.0827 19.7342 85.7903 19.8527 86.1525 20.3491L87.0015 21.5139C87.3632 22.0095 87.2601 22.7203 86.7723 23.0926L17.386 76.0944C16.8982 76.4667 16.2035 76.3656 15.8422 75.8701L12.6517 71.4956C12.2899 70.9994 12.4061 70.3072 12.9103 69.9559L84.5786 20.0847Z" fill="#B3874F"/>
<path d="M29.5126 64.1218C27.9564 65.5626 27.0888 67.3474 26.6047 69.052L27.7996 68.1391C28.2815 66.9282 29.0013 65.736 30.0812 64.7358C31.4635 63.4553 33.2878 62.6229 35.5268 62.2366L36.8502 61.2262C33.7728 61.49 31.3112 62.4569 29.5126 64.1218ZM82.2555 26.5428L83.3375 25.7167C83.848 24.1384 84.8134 22.2966 86.735 21.1479L86.2376 20.4656C84.2948 21.6589 82.962 23.6901 82.2555 26.5428ZM23.8882 62.3171L22.3596 63.3809C20.3372 67.0874 17.8552 71.3332 14.6079 74.1779L15.1043 74.8584C18.8842 71.573 21.6213 66.5133 23.8161 62.451C23.8402 62.4061 23.864 62.362 23.8882 62.3171ZM46.6361 48.944C47.9443 47.9085 48.9865 46.3586 49.7566 44.3161L48.461 45.2179C47.7326 46.7137 46.8169 47.8403 45.7163 48.5805C44.5464 49.3665 43.2614 49.6611 42.0088 49.7076L40.8328 50.5262C42.5618 50.6455 44.4585 50.4343 46.183 49.2749C46.3377 49.1708 46.4886 49.0607 46.6361 48.944ZM29.3254 60.895C24.8576 63.6446 23.2648 68.758 22.21 72.1408C22.173 72.2608 22.1363 72.3775 22.0996 72.4933L23.2532 71.6125C24.2783 68.3841 25.8877 63.9959 29.7641 61.6073C32.8234 59.7232 36.0228 59.2028 39.1174 58.7002C39.5649 58.6276 40.0083 58.5549 40.4471 58.4793L41.9388 57.3395C40.989 57.5475 39.9966 57.7096 38.9829 57.8743C35.9564 58.3658 32.5259 58.9236 29.3254 60.895ZM79.2859 23.7676C77.6448 27.3446 74.2127 31.8167 67.279 32.1232L66.1299 32.9224C69.5476 32.9336 72.9785 32.0385 75.7803 29.8209C77.7904 28.2298 79.4757 25.9573 80.5997 22.8535L79.2859 23.7676ZM61.441 38.4386C56.5913 39.9275 55.4178 43.9052 55.015 47.3509L55.9538 46.6337C56.422 43.5903 57.6537 40.4767 61.6862 39.2386C63.3295 38.7342 65.0849 38.2714 66.7822 37.8243C67.1427 37.7292 67.5015 37.6349 67.8586 37.54L69.6189 36.1951C68.6123 36.4764 67.5882 36.7468 66.5694 37.0151C64.8635 37.4645 63.0995 37.9289 61.441 38.4386ZM54.045 41.3317L52.8604 42.1558C52.7982 42.3424 52.7364 42.5304 52.6739 42.7204C52.0784 44.5348 51.4035 46.5916 49.6222 48.6553C46.5404 52.2273 40.9242 53.0402 36.8365 53.3067L35.5286 54.2171C39.2651 54.0447 45.0197 53.5777 48.8399 50.5539C49.3494 50.1507 49.8243 49.7015 50.2559 49.2019C52.1464 47.0115 52.8493 44.8703 53.4692 42.9811C53.6591 42.4028 53.8408 41.8533 54.045 41.3317Z" fill="#997443"/>
<path d="M80.7475 14.3274C81.2953 14.0506 81.9796 14.2676 82.2685 14.8094L82.9461 16.0816C83.2348 16.6236 83.0334 17.3125 82.4981 17.613L6.37159 60.3729C5.83635 60.673 5.16289 60.4762 4.8745 59.9346L2.32825 55.1565C2.03935 54.6146 2.25134 53.9456 2.79988 53.6688L80.7475 14.3274Z" fill="#B3874F"/>
<path d="M20.0559 50.2172C18.3135 51.4264 17.2045 53.0718 16.4861 54.6918L17.7977 53.9556C18.4438 52.8237 19.3239 51.7442 20.5334 50.9052C22.0809 49.831 24.0043 49.2624 26.2752 49.1934L27.7266 48.3778C24.6429 48.2086 22.0703 48.8205 20.0559 50.2172ZM77.5426 20.3969L78.7299 19.73C79.4562 18.2392 80.6702 16.5506 82.7337 15.6821L82.3366 14.9369C80.2458 15.8461 78.6418 17.6704 77.5426 20.3969ZM14.7396 47.6426L13.077 48.4816C10.5555 51.8684 7.50274 55.7244 3.88935 58.0861L4.2853 58.8296C8.48845 56.1063 11.9069 51.48 14.6493 47.7648C14.6798 47.7238 14.7098 47.684 14.7396 47.6426ZM39.1365 37.5874C40.5766 36.7456 41.826 35.3568 42.8746 33.4424L41.4659 34.1536C40.5349 35.5324 39.4703 36.5198 38.2767 37.0981C37.0088 37.713 35.6953 37.8248 34.4483 37.6955L33.1689 38.3407C34.8645 38.7014 36.7719 38.7585 38.6418 37.8516C38.8092 37.7704 38.9739 37.6823 39.1365 37.5874ZM20.3223 46.9959C15.5141 49.0925 13.2201 53.9325 11.7022 57.134C11.6486 57.2477 11.596 57.3581 11.5434 57.4681L12.8089 56.7573C14.2761 53.7044 16.4841 49.5842 20.6569 47.7625C23.9502 46.3257 27.1907 46.2585 30.3247 46.1937C30.7785 46.1847 31.2278 46.1749 31.6724 46.1613L33.3089 45.2421C32.3396 45.3152 31.3343 45.3365 30.3078 45.3578C27.2423 45.4207 23.7676 45.4923 20.3223 46.9959ZM74.9907 17.233C72.8648 20.5442 68.8403 24.4916 61.932 23.8241L60.6822 24.455C64.0646 24.9444 67.5874 24.5386 70.6722 22.7353C72.8849 21.442 74.8726 19.4278 76.4201 16.5122L74.9907 17.233ZM55.2669 29.2595C50.2567 30.0546 48.5375 33.8286 47.6564 37.1839L48.6863 36.6054C49.5759 33.6581 51.2315 30.747 55.3982 30.0861C57.0956 29.8166 58.8983 29.6044 60.642 29.3996C61.012 29.356 61.3807 29.3125 61.7471 29.2689L63.679 28.184C62.6429 28.3213 61.5901 28.4454 60.544 28.5683C58.7925 28.7738 56.9804 28.9873 55.2669 29.2595ZM47.5387 31.0883L46.2507 31.7385C46.1624 31.9142 46.0751 32.0916 45.9862 32.2711C45.1428 33.9842 44.1864 35.9262 42.1334 37.7198C38.5817 40.8258 32.9068 40.8437 28.8222 40.5346L27.4 41.2533C31.1236 41.6058 36.8868 41.9496 41.093 39.4909C41.6535 39.1624 42.1872 38.7849 42.6842 38.3505C44.8631 36.4462 45.8589 34.4247 46.7373 32.6409C47.0065 32.094 47.2636 31.5757 47.5387 31.0883Z" fill="#997443"/>
</svg>
