<svg width="56" height="56" viewBox="0 0 56 56" fill="none" xmlns="http://www.w3.org/2000/svg">
<rect width="56" height="56" rx="28" fill="black"/>
<g clip-path="url(#clip0_1_882)">
<path d="M26.9531 22.0906L27.6469 21.3968C27.9406 21.1031 28.4156 21.1031 28.7063 21.3968L34.7812 27.4687C35.075 27.7625 35.075 28.2375 34.7812 28.5281L28.7063 34.6031C28.4125 34.8968 27.9375 34.8968 27.6469 34.6031L26.9531 33.9093C26.6562 33.6125 26.6625 33.1281 26.9656 32.8375L30.7312 29.25H21.75C21.3344 29.25 21 28.9156 21 28.5V27.5C21 27.0843 21.3344 26.75 21.75 26.75H30.7312L26.9656 23.1625C26.6594 22.8718 26.6531 22.3875 26.9531 22.0906Z" fill="#FFC501"/>
</g>
<defs>
<clipPath id="clip0_1_882">
<rect width="16" height="16" fill="white" transform="translate(20 20)"/>
</clipPath>
</defs>
</svg>
