<svg width="56" height="56" viewBox="0 0 56 56" fill="none" xmlns="http://www.w3.org/2000/svg">
<rect width="56" height="56" rx="28" fill="black"/>
<rect x="56" y="56" width="56" height="56" rx="28" transform="rotate(180 56 56)" fill="black"/>
<rect x="56" y="56" width="56" height="56" rx="28" transform="rotate(180 56 56)" fill="black"/>
<path d="M23.2283 34.192C22.279 34.192 21.447 33.936 20.7323 33.424C20.0283 32.9013 19.479 32.1813 19.0843 31.264C18.6896 30.336 18.4923 29.2587 18.4923 28.032C18.4923 26.8053 18.6896 25.7333 19.0843 24.816C19.479 23.888 20.0283 23.168 20.7323 22.656C21.4363 22.144 22.263 21.888 23.2123 21.888C24.1616 21.888 24.9883 22.144 25.6923 22.656C26.3963 23.168 26.9456 23.888 27.3403 24.816C27.7456 25.7333 27.9483 26.8053 27.9483 28.032C27.9483 29.2587 27.751 30.336 27.3563 31.264C26.9616 32.192 26.407 32.912 25.6923 33.424C24.9883 33.936 24.167 34.192 23.2283 34.192ZM23.2283 32.736C23.8683 32.736 24.423 32.544 24.8923 32.16C25.3616 31.7653 25.7243 31.216 25.9803 30.512C26.247 29.808 26.3803 28.9813 26.3803 28.032C26.3803 27.0827 26.247 26.256 25.9803 25.552C25.7243 24.848 25.3563 24.304 24.8763 23.92C24.407 23.536 23.8523 23.344 23.2123 23.344C22.5723 23.344 22.0176 23.536 21.5483 23.92C21.079 24.304 20.711 24.848 20.4443 25.552C20.1883 26.256 20.0603 27.0827 20.0603 28.032C20.0603 28.9707 20.1883 29.792 20.4443 30.496C20.711 31.2 21.079 31.7493 21.5483 32.144C22.0283 32.5387 22.5883 32.736 23.2283 32.736ZM33.7024 34.192C33.0731 34.192 32.4864 34.08 31.9424 33.856C31.3984 33.632 30.9291 33.3173 30.5344 32.912C30.1398 32.496 29.8464 32.0053 29.6544 31.44L30.9824 30.896C31.2064 31.4933 31.5584 31.9573 32.0384 32.288C32.5184 32.6187 33.0731 32.784 33.7024 32.784C34.1931 32.784 34.6304 32.688 35.0144 32.496C35.3984 32.304 35.6971 32.0267 35.9104 31.664C36.1344 31.3013 36.2464 30.864 36.2464 30.352C36.2464 29.8293 36.1344 29.392 35.9104 29.04C35.6971 28.6773 35.3984 28.4 35.0144 28.208C34.6304 28.016 34.1878 27.92 33.6864 27.92C33.5264 27.92 33.3504 27.9307 33.1584 27.952C32.9771 27.9733 32.8224 28.0053 32.6944 28.048L32.3584 27.328L35.5424 23.44H30.2624V22.08H37.3184V23.392L34.2784 27.136L34.1824 26.72C34.8971 26.7413 35.5264 26.9067 36.0704 27.216C36.6144 27.5253 37.0411 27.9467 37.3504 28.48C37.6598 29.0027 37.8144 29.616 37.8144 30.32C37.8144 31.0453 37.6384 31.7013 37.2864 32.288C36.9344 32.8747 36.4491 33.3387 35.8304 33.68C35.2118 34.0213 34.5024 34.192 33.7024 34.192Z" fill="#FFC501"/>
</svg>
