<svg width="56" height="56" viewBox="0 0 56 56" fill="none" xmlns="http://www.w3.org/2000/svg">
<rect width="56" height="56" rx="28" fill="black"/>
<g clip-path="url(#clip0_1_878)">
<path d="M29.0469 33.9093L28.3531 34.6031C28.0594 34.8968 27.5844 34.8968 27.2937 34.6031L21.2187 28.5312C20.925 28.2375 20.925 27.7625 21.2187 27.4718L27.2937 21.3968C27.5875 21.1031 28.0625 21.1031 28.3531 21.3968L29.0469 22.0906C29.3437 22.3875 29.3375 22.8718 29.0344 23.1625L25.2687 26.75H34.25C34.6656 26.75 35 27.0843 35 27.5V28.5C35 28.9156 34.6656 29.25 34.25 29.25H25.2687L29.0344 32.8375C29.3406 33.1281 29.3469 33.6125 29.0469 33.9093Z" fill="#FFC501"/>
</g>
<defs>
<clipPath id="clip0_1_878">
<rect width="16" height="16" fill="white" transform="translate(20 20)"/>
</clipPath>
</defs>
</svg>
