<svg width="129" height="129" viewBox="0 0 129 129" fill="none" xmlns="http://www.w3.org/2000/svg">
<g clip-path="url(#clip0_2015_2)">
<path d="M64.5 129C100.122 129 129 100.122 129 64.5C129 28.8776 100.122 0 64.5 0C28.8776 0 0 28.8776 0 64.5C0 100.122 28.8776 129 64.5 129Z" fill="#FFAA20"/>
<path d="M129 64.5C129 59.3448 128.392 54.3322 127.249 49.5264L110.284 32.5614L107.895 32.5612C107.895 32.5612 103.668 33.2024 103.668 36.8781C103.668 39.3919 103.668 50.3347 103.668 57.0021L88.7263 42.087C82.6973 35.5735 74.0757 31.4941 64.5 31.4941C54.275 31.4941 45.1367 36.1442 39.0825 43.4445L28.6058 32.5614H26.2639V36.189L23.5594 32.5614H21.1139V36.189L18.4095 32.5614H16.0676V47.4198C16.0676 48.8318 16.6347 50.1142 17.5516 51.057L20.4989 53.819V65.7373H18.773V93.1836C18.773 94.0506 19.1172 94.8404 19.6753 95.4247L52.4078 127.863C56.3251 128.606 60.3665 129 64.5 129C100.122 129 129 100.122 129 64.5Z" fill="#E67500"/>
<path d="M107.895 32.5615C107.895 32.5615 103.668 33.2027 103.668 36.8785C103.668 40.554 103.668 62.2532 103.668 62.2532H106.608V69.9174H110.284V32.5618L107.895 32.5615Z" fill="white"/>
<path d="M110.285 32.5625H108.36V69.9171H110.285V32.5625Z" fill="#FFF5CB"/>
<path d="M108.67 96.4385H108.052C106.262 96.4385 104.797 94.9739 104.797 93.1838V65.7375H111.924V93.1838C111.924 94.9739 110.46 96.4385 108.67 96.4385Z" fill="#00E8F2"/>
<path d="M26.2639 32.5615V44.0733C26.2639 44.817 25.6554 45.4255 24.9116 45.4255C24.1679 45.4255 23.5594 44.817 23.5594 44.0733V32.5615H21.1139V44.0733C21.1139 44.817 20.5055 45.4255 19.7617 45.4255C19.0179 45.4255 18.4095 44.817 18.4095 44.0733V32.5615H16.0676V47.42C16.0676 50.0277 17.9978 52.2003 20.4987 52.5958V69.9174H24.1742V52.5958C26.675 52.2005 28.6053 50.0277 28.6053 47.42V32.5615H26.2639Z" fill="white"/>
<path d="M28.6067 32.5625V47.4202C28.6067 50.0279 26.6768 52.1997 24.1749 52.5953V69.9171H22.3356V32.5625H23.5601V44.0742C23.5601 44.8175 24.1673 45.4247 24.9106 45.4247C25.6564 45.4247 26.2636 44.8175 26.2636 44.0742V32.5625H28.6067Z" fill="#FFF5CB"/>
<path d="M22.6456 96.4385H22.0278C20.2376 96.4385 18.773 94.9739 18.773 93.1838V65.7375H25.9003V93.1838C25.9003 94.9739 24.4357 96.4385 22.6456 96.4385Z" fill="#00E8F2"/>
<path d="M25.9008 65.7371V93.1848C25.9008 94.9737 24.4369 96.4375 22.6455 96.4375H22.3356V65.7371H25.9008Z" fill="#00B7BE"/>
<path d="M111.924 65.7371V93.1848C111.924 94.9737 110.461 96.4375 108.669 96.4375H108.359V65.7371H111.924Z" fill="#00B7BE"/>
<path d="M64.5 97.5059C82.7286 97.5059 97.5059 82.7286 97.5059 64.5C97.5059 46.2714 82.7286 31.4941 64.5 31.4941C46.2714 31.4941 31.4941 46.2714 31.4941 64.5C31.4941 82.7286 46.2714 97.5059 64.5 97.5059Z" fill="white"/>
<path d="M97.5059 64.5C97.5059 82.7288 82.7288 97.5059 64.5 97.5059V31.4941C82.7288 31.4941 97.5059 46.2712 97.5059 64.5Z" fill="#FFF5CB"/>
<path d="M64.5 83.3309C74.9 83.3309 83.331 74.9 83.331 64.4999C83.331 54.0999 74.9 45.6689 64.5 45.6689C54.0999 45.6689 45.669 54.0999 45.669 64.4999C45.669 74.9 54.0999 83.3309 64.5 83.3309Z" fill="#FFF5CB"/>
<path d="M83.331 64.4999C83.331 74.9005 74.9006 83.3309 64.5 83.3309V45.6689C74.9006 45.6689 83.331 54.0993 83.331 64.4999Z" fill="#FFE670"/>
</g>
<defs>
<clipPath id="clip0_2015_2">
<rect width="129" height="129" fill="white"/>
</clipPath>
</defs>
</svg>
