<svg width="56" height="56" viewBox="0 0 56 56" fill="none" xmlns="http://www.w3.org/2000/svg">
<rect x="56" y="56" width="56" height="56" rx="28" transform="rotate(180 56 56)" fill="black"/>
<rect x="56" y="56" width="56" height="56" rx="28" transform="rotate(180 56 56)" fill="black"/>
<rect x="3" y="3" width="50" height="50" rx="25" fill="#FFC501"/>
<path d="M23.3221 34.192C22.3727 34.192 21.5407 33.936 20.8261 33.424C20.1221 32.9013 19.5727 32.1813 19.1781 31.264C18.7834 30.336 18.5861 29.2587 18.5861 28.032C18.5861 26.8053 18.7834 25.7333 19.1781 24.816C19.5727 23.888 20.1221 23.168 20.8261 22.656C21.5301 22.144 22.3567 21.888 23.3061 21.888C24.2554 21.888 25.0821 22.144 25.7861 22.656C26.4901 23.168 27.0394 23.888 27.4341 24.816C27.8394 25.7333 28.0421 26.8053 28.0421 28.032C28.0421 29.2587 27.8447 30.336 27.4501 31.264C27.0554 32.192 26.5007 32.912 25.7861 33.424C25.0821 33.936 24.2607 34.192 23.3221 34.192ZM23.3221 32.736C23.9621 32.736 24.5167 32.544 24.9861 32.16C25.4554 31.7653 25.8181 31.216 26.0741 30.512C26.3407 29.808 26.4741 28.9813 26.4741 28.032C26.4741 27.0827 26.3407 26.256 26.0741 25.552C25.8181 24.848 25.4501 24.304 24.9701 23.92C24.5007 23.536 23.9461 23.344 23.3061 23.344C22.6661 23.344 22.1114 23.536 21.6421 23.92C21.1727 24.304 20.8047 24.848 20.5381 25.552C20.2821 26.256 20.1541 27.0827 20.1541 28.032C20.1541 28.9707 20.2821 29.792 20.5381 30.496C20.8047 31.2 21.1727 31.7493 21.6421 32.144C22.1221 32.5387 22.6821 32.736 23.3221 32.736ZM29.9562 34V32.912L33.2522 29.344C33.9029 28.6507 34.4202 28.08 34.8042 27.632C35.1989 27.184 35.4869 26.784 35.6682 26.432C35.8495 26.08 35.9402 25.7067 35.9402 25.312C35.9402 24.6613 35.7482 24.16 35.3642 23.808C34.9802 23.456 34.4735 23.28 33.8442 23.28C33.2042 23.28 32.6602 23.4667 32.2122 23.84C31.7642 24.2027 31.4549 24.72 31.2842 25.392L29.8602 25.024C29.9989 24.384 30.2549 23.8293 30.6282 23.36C31.0015 22.8907 31.4655 22.528 32.0202 22.272C32.5749 22.016 33.1829 21.888 33.8442 21.888C34.5695 21.888 35.2042 22.032 35.7482 22.32C36.3029 22.5973 36.7349 22.9867 37.0442 23.488C37.3642 23.9893 37.5242 24.5707 37.5242 25.232C37.5242 25.6693 37.4335 26.096 37.2522 26.512C37.0709 26.928 36.8042 27.3707 36.4522 27.84C36.1002 28.2987 35.6415 28.832 35.0762 29.44L32.1322 32.64H37.7802V34H29.9562Z" fill="black"/>
</svg>
