<svg width="40" height="40" viewBox="0 0 40 40" fill="none" xmlns="http://www.w3.org/2000/svg">
<rect width="40" height="40" rx="12" fill="#1DA1F2"/>
<g clip-path="url(#clip0_1_1098)">
<path d="M28.125 14.9668C27.5273 15.2246 26.877 15.4102 26.207 15.4824C26.9026 15.0692 27.4234 14.4164 27.6719 13.6465C27.0192 14.0348 26.3042 14.307 25.5586 14.4512C25.247 14.118 24.8701 13.8526 24.4514 13.6715C24.0327 13.4904 23.5812 13.3974 23.125 13.3984C21.2793 13.3984 19.7949 14.8945 19.7949 16.7305C19.7949 16.9883 19.8262 17.2461 19.877 17.4941C17.1133 17.3496 14.6484 16.0293 13.0098 14.0078C12.7112 14.5178 12.5547 15.0985 12.5566 15.6895C12.5566 16.8457 13.1445 17.8652 14.041 18.4649C13.5127 18.444 12.9968 18.2988 12.5352 18.041V18.082C12.5352 19.7012 13.6797 21.043 15.2051 21.3516C14.9187 21.426 14.624 21.464 14.3281 21.4649C14.1113 21.4649 13.9062 21.4434 13.6992 21.4141C14.1211 22.7344 15.3496 23.6934 16.8125 23.7246C15.668 24.6211 14.2344 25.1484 12.6777 25.1484C12.3984 25.1484 12.1406 25.1387 11.873 25.1074C13.3496 26.0547 15.1016 26.6016 16.9883 26.6016C23.1133 26.6016 26.4648 21.5274 26.4648 17.1231C26.4648 16.9785 26.4648 16.834 26.4551 16.6895C27.1035 16.2149 27.6719 15.627 28.125 14.9668Z" fill="white"/>
</g>
<defs>
<clipPath id="clip0_1_1098">
<rect width="20" height="20" fill="white" transform="translate(10 10)"/>
</clipPath>
</defs>
</svg>
