<svg width="26" height="24" viewBox="0 0 26 24" fill="none" xmlns="http://www.w3.org/2000/svg">
<g clip-path="url(#clip0_1_1533)">
<path d="M9.5 20.25C9.5 20.3826 9.44732 20.5098 9.35355 20.6036C9.25979 20.6973 9.13261 20.75 9 20.75C8.86739 20.75 8.74021 20.6973 8.64645 20.6036C8.55268 20.5098 8.5 20.3826 8.5 20.25C8.5 20.1174 8.55268 19.9902 8.64645 19.8964C8.74021 19.8027 8.86739 19.75 9 19.75C9.13261 19.75 9.25979 19.8027 9.35355 19.8964C9.44732 19.9902 9.5 20.1174 9.5 20.25ZM19.25 20.25C19.25 20.3826 19.1973 20.5098 19.1036 20.6036C19.0098 20.6973 18.8826 20.75 18.75 20.75C18.6174 20.75 18.4902 20.6973 18.3964 20.6036C18.3027 20.5098 18.25 20.3826 18.25 20.25C18.25 20.1174 18.3027 19.9902 18.3964 19.8964C18.4902 19.8027 18.6174 19.75 18.75 19.75C18.8826 19.75 19.0098 19.8027 19.1036 19.8964C19.1973 19.9902 19.25 20.1174 19.25 20.25Z" fill="#02C27F" stroke="#02C27F" stroke-width="2"/>
<path d="M5.466 6.75H22.284L19.809 15.412C19.7209 15.7264 19.532 16.0032 19.2713 16.1997C19.0106 16.3963 18.6925 16.5018 18.366 16.5H9.384C9.05749 16.5018 8.73943 16.3963 8.47872 16.1997C8.21801 16.0032 8.02909 15.7264 7.941 15.412L4.547 3.544C4.50219 3.38714 4.40746 3.24917 4.27717 3.151C4.14688 3.05283 3.98813 2.99982 3.825 3H2.25" stroke="#02C27F" stroke-width="2" stroke-linecap="round" stroke-linejoin="round"/>
</g>
<defs>
<clipPath id="clip0_1_1533">
<rect width="25" height="24" fill="white" transform="translate(0.5)"/>
</clipPath>
</defs>
</svg>
