<svg width="21" height="24" viewBox="0 0 21 24" fill="none" xmlns="http://www.w3.org/2000/svg">
<g clip-path="url(#clip0_1_911)">
<path d="M19.067 10.6316C19.0678 11.401 18.9456 12.1656 18.7052 12.8965C18.1575 14.9229 16.9524 16.7102 15.2791 17.9777H15.2771L9.56966 22.7595L3.3359 17.5421C1.66005 15.8506 0.258101 13.5586 0.129638 10.8951C0.0130868 8.49847 0.812162 6.14717 2.36489 4.31782C3.91762 2.48847 6.10783 1.31795 8.49156 1.04351C10.8753 0.769078 13.2742 1.41127 15.202 2.8399C17.1298 4.26854 18.4423 6.37674 18.8734 8.73717C18.8835 8.79252 18.8786 8.84969 18.859 8.90245C18.9976 9.46841 19.0675 10.049 19.0671 10.6317L19.067 10.6316Z" fill="#02C27F"/>
<path d="M9.62475 12.5939C11.6798 12.5939 13.3455 10.9281 13.3455 8.8731C13.3455 6.81821 11.6798 5.15234 9.62475 5.15234C7.56986 5.15234 5.90399 6.81808 5.90399 8.8731C5.90399 10.928 7.56973 12.5939 9.62475 12.5939Z" fill="white"/>
</g>
<defs>
<clipPath id="clip0_1_911">
<rect width="21" height="24" fill="white"/>
</clipPath>
</defs>
</svg>
