<svg width="25" height="23" viewBox="0 0 25 23" fill="none" xmlns="http://www.w3.org/2000/svg">
<g clip-path="url(#clip0_1_562)">
<path d="M13.219 10.984L3.46558 21.0896L3.46701 21.0953C3.62428 21.6475 3.95834 22.1328 4.41793 22.4768C4.87753 22.8209 5.4373 23.0047 6.01139 23C6.4987 23 6.95583 22.8706 7.34826 22.6464L7.37989 22.6277L18.3581 16.445L13.219 10.9825V10.984Z" fill="#EA4335"/>
<path d="M23.0874 9.26326L23.0774 9.25751L18.3379 6.57513L12.9976 11.2125L18.3566 16.4421L23.0716 13.7871C23.8982 13.3515 24.4588 12.5019 24.4588 11.5201C24.4588 10.5469 23.9054 9.70026 23.0874 9.26326Z" fill="#FBBC04"/>
<path d="M3.46412 1.91187C3.40662 2.12174 3.375 2.34312 3.375 2.57312V20.4269C3.375 20.6569 3.40519 20.8797 3.46412 21.0881L13.5554 11.2427L3.46269 1.91187H3.46412Z" fill="#4285F4"/>
<path d="M13.2909 11.5L18.3394 6.57369L7.37126 0.368001C6.95872 0.126688 6.48933 -0.000336894 6.01139 6.71052e-07C4.79239 6.71052e-07 3.76314 0.809313 3.46558 1.90756V1.91044L13.2895 11.5H13.2909Z" fill="#34A853"/>
</g>
<defs>
<clipPath id="clip0_1_562">
<rect width="24" height="23" fill="white" transform="translate(0.71875)"/>
</clipPath>
</defs>
</svg>
