<svg width="121" height="121" viewBox="0 0 121 121" fill="none" xmlns="http://www.w3.org/2000/svg">
<path d="M59.9642 110.848C88.0673 110.848 110.85 88.0653 110.85 59.962C110.85 31.8589 88.0673 9.07666 59.9642 9.07666C31.8609 9.07666 9.07877 31.8589 9.07877 59.962C9.07877 88.0653 31.8609 110.848 59.9642 110.848Z" fill="#0C513F" stroke="white" stroke-width="1.31351" stroke-miterlimit="10"/>
<path d="M32.1866 52.536C36.5376 51.7807 41.2006 51.0649 45.2101 52.9037C49.3313 54.7919 51.9189 59.0872 52.9664 63.4972C53.6888 66.5512 53.5673 70.2586 51.1045 72.196C49.351 73.5785 46.9144 73.6441 44.6913 73.4175C42.4156 73.1876 39.943 72.5802 38.6097 70.7183C37.2108 68.748 37.5556 66.006 38.6294 63.8552C39.3439 62.3869 40.3866 61.1026 41.6768 60.1019C43.913 58.3976 46.7534 57.7638 49.4889 57.1103C53.7577 56.0989 57.9971 54.9266 61.9048 52.9563C65.8125 50.9861 69.3853 48.1653 71.6379 44.4185C72.2138 43.5249 72.6242 42.5349 72.8496 41.4959C73.0875 40.1953 72.8783 38.8525 72.2558 37.686C71.6334 36.5195 70.6345 35.598 69.4217 35.0716C68.2088 34.545 66.8535 34.4446 65.5762 34.7865C64.2991 35.1284 63.1752 35.8925 62.3875 36.9544C60.3516 39.7063 61.0938 43.6402 62.6272 46.7007C64.1607 49.7612 66.3938 52.5195 67.2705 55.8296C67.5365 56.8344 67.6908 57.9181 68.3377 58.7324C69.3557 60.0131 71.2931 60.1905 72.8398 59.629C74.9578 58.8539 76.5143 56.9461 77.3024 54.8346C78.0905 52.7232 78.1858 50.4179 78.0807 48.1686C78.0224 45.8373 77.6094 43.5287 76.8559 41.3219C75.7525 38.3172 73.7756 35.6672 72.8693 32.5969C71.963 29.5265 72.541 25.5893 75.3749 24.1018C76.429 23.5468 77.6472 23.4122 78.836 23.3957C82.4251 23.3531 86.1916 24.4761 88.5593 27.1655C90.2832 29.1358 91.1206 31.73 91.3898 34.3209C91.774 38.025 91.0253 41.9359 88.8088 44.9242C87.5216 46.6613 85.7516 48.1028 84.9832 50.1223C84.4184 51.5935 84.4414 53.2519 83.7715 54.677C82.632 57.1004 79.7916 58.2301 77.1317 58.5486C74.4719 58.8671 71.7364 58.6045 69.1455 59.271C66.6204 59.9277 64.3841 61.4218 61.872 62.1246C59.7605 62.7123 57.5308 62.719 55.3406 62.6205C52.2341 62.4792 49.062 62.1147 46.2707 60.7389C41.6078 58.4402 38.5112 53.0089 39.4766 47.8993C39.9528 45.3938 41.2893 43.1444 42.6521 40.987C46.1361 35.4669 50.4116 29.7992 56.6737 27.9537C62.0263 26.3741 67.7762 27.9274 73.0072 29.878C75.4832 30.804 78.0314 31.8909 79.7325 33.9169C80.4406 34.8246 81.0515 35.8042 81.555 36.8395C84.7774 42.9692 87.793 49.1996 90.6017 55.5307C91.9316 58.5289 93.1795 62.1508 91.4128 64.9158C90.037 67.0733 87.249 67.8712 84.6909 67.9335C81.3087 68.0124 77.4667 66.6628 76.3042 63.4841C75.723 61.8849 75.9299 60.0821 75.3355 58.4894C74.7411 56.8969 72.646 55.6095 71.3752 56.7392C70.9722 57.1532 70.6934 57.672 70.5707 58.2366C70.0262 59.9626 69.9761 61.8067 70.4262 63.5597C71.1421 66.098 73.0894 68.1207 74.0219 70.5902C74.5406 72.004 74.7176 73.5204 74.5385 75.0156C74.3592 76.5108 73.829 77.9425 72.9908 79.1937C71.4803 81.4103 68.7384 82.9601 66.1179 82.3822C62.8735 81.6631 61.0018 77.8605 61.5666 74.5865C62.1314 71.3127 64.5516 68.6331 67.2935 66.758C68.075 66.2227 68.9059 65.7203 69.4805 64.9716C70.0552 64.2229 70.3113 63.1294 69.8089 62.3249C69.4999 61.8957 69.0907 61.5484 68.6169 61.3135C66.723 60.2043 64.7048 59.3225 62.6042 58.6865C60.9952 58.2004 57.7475 58.3351 53.3538 53.2453C48.6811 47.8336 45.0361 41.0559 45.3185 33.9104C45.4302 31.1159 46.2609 28.1572 48.4348 26.3938C50.6086 24.6304 54.3456 24.6994 55.82 27.0769C56.2091 27.7668 56.4757 28.519 56.6081 29.3C57.6866 34.3082 57.3453 39.5181 55.623 44.3429C53.6757 49.7612 50.0701 54.4307 47.7419 59.7045C45.4137 64.9782 44.5993 71.5622 48.0506 76.1726" stroke="#E2BF88" stroke-width="2.62702" stroke-linecap="round" stroke-linejoin="round"/>
<path d="M92.8715 86.3728C94.9402 80.9775 99.4653 68.7488 88.3793 56.2211C84.8328 52.2149 80.0418 48.9969 74.6958 48.7703C69.629 48.5634 64.7 50.9408 60.9729 54.3789C57.2459 57.817 54.5761 62.2436 52.2938 66.7719C51.4466 68.4466 50.6258 70.2592 50.8392 72.1211C50.9903 73.4347 51.6338 74.6135 52.3431 75.7334C55.8765 81.2435 61.1535 85.3745 66.3977 89.292C69.8359 91.86 73.5662 94.487 77.8515 94.7366C79.0961 94.8088 80.403 94.6578 81.4636 93.9879C82.5244 93.318 83.2467 92.0439 82.9939 90.8223C82.7865 90.0727 82.3723 89.3967 81.7986 88.8717C78.482 85.4566 73.356 84.4091 68.6044 84.6882C63.8528 84.9673 59.2457 86.376 54.5466 87.1444C53.5615 87.302 52.5139 87.417 51.6831 86.8981C50.6652 86.2414 50.3695 84.9279 50.1397 83.7524C49.0226 78.3275 46.8684 73.1696 43.7955 68.5616C42.436 66.5289 40.8401 64.4962 40.5117 62.0696C39.9797 58.2406 46.6096 39.2112 59.886 36.0522C63.3372 35.2312 71.3792 34.9127 76.3541 36.0982C82.0055 37.4413 87.7718 41.7397 89.6863 45.2928C95.4952 56.0504 83.3519 61.4194 80.7149 61.4982C77.5735 61.5921 74.4456 61.0481 71.5204 59.899C68.2629 58.615 65.3469 56.6152 62.2995 54.8912C57.3395 52.0867 52.009 49.9951 46.4652 48.6783C43.5951 47.9986 31.7637 44.0974 28.0038 57.7579C25.3242 67.4812 32.6274 77.8185 34.3875 79.5918C39.1949 84.4321 46.8395 77.2734 47.6211 76.4788C49.2367 74.8369 49.0134 72.0128 47.7228 70.1049C46.4323 68.1971 44.9579 65.4059 42.9351 64.3058C35.6222 60.293 32.033 66.8836 31.6389 67.8457C30.2157 71.2972 29.4259 74.9769 29.3075 78.7085C29.2385 81.9922 30.5027 95.1273 47.6966 90.8355C49.5627 90.3146 51.3765 89.622 53.1148 88.7667C55.1442 87.8373 57.1966 86.8916 58.9304 85.4829C60.2013 84.4583 61.275 83.2072 62.5426 82.1991C63.8414 81.2391 65.2421 80.4253 66.7195 79.7724C72.9948 76.7743 90.3397 68.1873 90.4283 81.7262C90.4612 86.6716 86.9279 91.1606 82.9545 94.1061C77.7004 97.9974 70.5254 98.9234 64.2731 97.0155C58.0208 95.1076 52.7405 90.5695 49.4074 84.941C48.8295 83.9559 48.291 82.9314 47.4371 82.1761C46.5834 81.4208 45.329 80.9972 44.2946 81.4701C43.9429 81.6542 43.6316 81.9068 43.3789 82.2131C43.1263 82.5193 42.9374 82.8729 42.8235 83.2531C41.7267 86.4122 44.2946 89.6401 46.9676 91.6531C49.9526 93.8992 53.7124 95.679 57.3444 94.7957C61.0353 93.8959 63.5638 90.5268 66.9002 88.7206C69.4056 87.3579 72.3282 86.8883 74.7812 85.4369C77.5067 83.8442 79.4409 81.2009 81.155 78.541C82.7017 76.1471 84.1727 73.5988 84.5439 70.7748C84.9642 67.5797 84.1695 64.2893 82.8495 61.3504C80.3209 55.7253 75.9075 54.3789 72.9981 53.9816C68.9447 53.4231 64.8409 53.3283 60.766 53.6992C56.4643 54.09 51.8013 55.2525 49.2728 58.7627C45.9594 63.3798 48.0152 70.256 52.3169 73.9864C55.5203 76.7532 59.6808 78.1537 63.9054 77.8875C65.9961 77.7328 68.0311 77.1407 69.8786 76.1497C71.726 75.1586 73.3449 73.7906 74.6301 72.1343C75.52 71.0362 76.1226 69.7339 76.3837 68.3449C76.5747 67.081 76.3592 65.7892 75.7683 64.6559C75.1773 63.5225 74.2415 62.6064 73.0959 62.0396C71.9502 61.4728 70.6542 61.2848 69.3947 61.5027C68.1353 61.7205 66.9777 62.333 66.089 63.2517C64.7755 64.6046 64.1844 66.4698 63.613 68.2594C63.0416 70.0492 62.4078 71.9111 61.0582 73.218C59.7086 74.5249 57.41 75.0568 55.9422 73.8747C54.3364 72.5842 54.5925 69.041 54.6286 66.9788C54.7009 62.2107 48.6325 60.1255 46.8232 64.6408C45.0466 69.0706 42.7611 74.1046 45.0598 78.2881C47.0529 81.92 51.5057 83.2696 55.5186 84.2974" stroke="#E2BF88" stroke-width="2.62702" stroke-linecap="round" stroke-linejoin="round"/>
<path d="M104.449 66.9237C100.243 68.2634 95.7241 69.6131 91.4978 68.3423C87.1567 67.0287 84.0043 63.1309 82.3657 58.908C81.2327 55.9854 80.842 52.2944 83.0225 50.0418C84.5724 48.4327 86.963 48.0353 89.2091 47.9565C91.5077 47.8712 94.0296 48.1339 95.6026 49.7955C97.2445 51.5424 97.2937 54.3173 96.5253 56.5995C96.0164 58.1514 95.1581 59.5658 94.0166 60.7337C92.0463 62.727 89.3076 63.745 86.6904 64.7662C82.6153 66.3523 78.5598 68.096 74.9608 70.5785C71.3617 73.061 68.2061 76.3514 66.4853 80.374C66.0389 81.3384 65.7686 82.3749 65.6874 83.4345C65.6301 84.7551 66.0214 86.0562 66.7976 87.1262C67.5738 88.1961 68.6891 88.9719 69.9623 89.3274C71.2354 89.6829 72.5913 89.5971 73.8096 89.084C75.0277 88.571 76.0365 87.6608 76.6716 86.5016C78.3135 83.4969 77.0394 79.7042 75.102 76.88C73.1645 74.056 70.5736 71.6261 69.2503 68.4703C68.8496 67.5114 68.5476 66.4606 67.7955 65.7415C66.6134 64.6119 64.6563 64.7071 63.2147 65.4722C61.2247 66.5296 59.931 68.6345 59.4515 70.8313C58.9721 73.0282 59.1789 75.3268 59.5894 77.5401C59.9692 79.8408 60.6955 82.0706 61.7436 84.1536C63.2475 86.9843 65.5659 89.3354 66.886 92.2547C68.2061 95.174 68.1732 99.1507 65.5725 101.013C64.6037 101.705 63.415 101.998 62.2394 102.185C58.6929 102.717 54.8083 102.122 52.0893 99.7812C50.119 98.0801 48.9302 95.6107 48.3096 93.0789C47.4198 89.4668 47.6267 85.4901 49.413 82.2228C50.4473 80.328 52.0039 78.6566 52.4932 76.5517C52.8479 75.0181 52.5983 73.3763 53.0646 71.8723C53.8625 69.3175 56.5256 67.807 59.1133 67.1272C61.7009 66.4475 64.4494 66.3359 66.9254 65.3179C69.339 64.3328 71.3487 62.5365 73.7392 61.4989C75.7522 60.6253 77.9589 60.3134 80.1426 60.1131C83.2392 59.8274 86.431 59.7552 89.3831 60.7337C94.3088 62.3757 98.1311 67.3276 97.8716 72.5225C97.7436 75.0707 96.7289 77.481 95.6748 79.8027C92.9788 85.7496 89.5177 91.9526 83.5675 94.6354C78.481 96.9341 72.5734 96.1821 67.1256 94.9639C64.5446 94.3892 61.8717 93.6503 59.9014 91.8836C59.0743 91.0828 58.3356 90.1954 57.6979 89.2369C53.6655 83.6129 49.8246 77.8553 46.1752 71.9642C44.4479 69.1763 42.7174 65.7579 44.0834 62.7697C45.154 60.4415 47.804 59.2659 50.3226 58.8554C53.6622 58.3169 57.6618 59.1247 59.2381 62.1162C60.0327 63.6201 60.0754 65.4361 60.8799 66.9335C61.6845 68.4309 63.9371 69.416 65.0405 68.1222C65.3831 67.6572 65.5889 67.1055 65.6349 66.5296C65.9376 64.7462 65.7351 62.9137 65.0503 61.2394C63.9897 58.8193 61.7862 57.0855 60.5253 54.7671C59.8171 53.4376 59.4334 51.9595 59.4054 50.4534C59.3775 48.9475 59.7061 47.456 60.3644 46.1013C61.5596 43.7008 64.0652 41.7896 66.7382 42.0031C70.0483 42.2691 72.4257 45.7827 72.3206 49.1026C72.2156 52.4225 70.1796 55.4075 67.7234 57.6404C67.0239 58.2775 66.2654 58.8883 65.8024 59.7125C65.3393 60.5367 65.231 61.6499 65.8351 62.3789C66.199 62.7591 66.6498 63.0453 67.1487 63.213C69.177 64.0538 71.2977 64.6512 73.4667 64.9928C75.1249 65.2523 78.3234 64.6644 83.3738 69.114C88.7428 73.836 93.2842 80.049 93.9804 87.1747C94.253 89.9594 93.8326 93.0067 91.9248 95.0557C90.0169 97.1048 86.303 97.5416 84.5166 95.3842C84.0365 94.753 83.6677 94.0445 83.4264 93.2891C81.6802 88.4735 81.3106 83.2666 82.3591 78.2527C83.5478 72.6177 86.477 67.4984 88.0499 61.9586C89.6229 56.4188 89.5374 49.779 85.4885 45.6842" stroke="#FFEDB3" stroke-width="2.62702" stroke-linecap="round" stroke-linejoin="round"/>
<path d="M83.5284 20.077C78.1037 18.087 65.796 13.7459 53.4491 25.0191C49.5086 28.6313 46.343 33.4617 46.2018 38.811C46.0704 43.8778 48.5201 48.7707 52.014 52.4484C55.5081 56.1263 59.9641 58.7237 64.5351 60.9501C66.223 61.7678 68.0487 62.5625 69.9074 62.3195C71.2208 62.152 72.3866 61.4887 73.4801 60.7663C78.9345 57.1542 82.9866 51.8114 86.8253 46.5081C89.344 43.0339 91.9119 39.2642 92.0991 34.9755C92.1549 33.7309 91.9809 32.4273 91.2979 31.3831C90.6149 30.3389 89.3275 29.6328 88.1093 29.9021C87.3634 30.1208 86.6942 30.5454 86.1784 31.127C82.8126 34.4928 81.8405 39.6352 82.1887 44.3835C82.5368 49.1319 84.0177 53.716 84.8584 58.402C85.0292 59.3674 85.1604 60.428 84.6515 61.2687C84.0275 62.2966 82.7043 62.5986 81.5319 62.8581C76.1202 64.0521 70.9908 66.2823 66.4265 69.4256C64.4135 70.8146 62.4039 72.4269 59.9838 72.7981C56.1615 73.3891 37.0368 67.0416 33.6807 53.8112C32.8073 50.3731 32.3672 42.3344 33.4772 37.3464C34.7381 31.6753 38.9512 25.8532 42.4681 23.8829C53.1371 17.9163 58.6867 29.9744 58.8049 32.6112C58.9467 35.7488 58.4495 38.8825 57.3436 41.8222C56.1089 45.106 54.1551 48.0614 52.4737 51.1185C49.7434 56.1153 47.7325 61.4726 46.5006 67.0317C45.8635 69.9116 42.1365 81.8087 55.8495 85.3585C65.6154 87.8903 75.8411 80.4328 77.5914 78.6464C82.3595 73.7667 75.0859 66.2304 74.278 65.462C72.6132 63.8694 69.7924 64.1486 67.9042 65.462C66.0161 66.7756 63.2446 68.296 62.1773 70.3352C58.3124 77.7139 64.939 81.2045 65.9176 81.5854C69.3905 82.9539 73.0809 83.688 76.8131 83.7527C80.0969 83.7757 93.232 82.3111 88.6643 65.1895C88.1159 63.332 87.397 61.5292 86.5167 59.8042C85.5545 57.7912 84.5792 55.752 83.1508 54.0378C82.1065 52.7834 80.8522 51.7391 79.8178 50.4618C78.8388 49.1781 78.0041 47.7906 77.3287 46.3242C74.2386 40.085 65.3921 22.8781 78.9312 22.5859C83.8569 22.4807 88.4147 25.9452 91.4095 29.8725C95.3829 35.0675 96.414 42.2294 94.5981 48.5112C92.7822 54.7931 88.3063 60.149 82.7305 63.5607C81.7617 64.1551 80.7372 64.7101 79.9951 65.5704C79.253 66.4308 78.8491 67.6951 79.3383 68.7228C79.5273 69.0718 79.7842 69.3793 80.0938 69.6274C80.4034 69.8755 80.7595 70.0593 81.1411 70.1678C84.3199 71.2152 87.5084 68.6014 89.4786 65.8988C91.6821 62.881 93.4028 59.0949 92.4669 55.4761C91.5147 51.7983 88.1192 49.319 86.2507 46.0123C84.8518 43.5265 84.3362 40.6138 82.8619 38.1739C81.22 35.4714 78.5568 33.5766 75.8806 31.9052C73.467 30.3913 70.8958 28.9498 68.0652 28.6214C64.8897 28.2504 61.606 29.0976 58.6834 30.4603C53.101 33.0874 51.8138 37.504 51.4592 40.4036C50.9634 44.4652 50.9303 48.5699 51.3605 52.6389C51.8137 56.9341 53.0484 61.5806 56.5949 64.0468C61.2611 67.2944 68.121 65.1337 71.7725 60.763C74.4879 57.5211 75.8258 53.3448 75.4996 49.1285C75.3139 47.0403 74.6919 45.0141 73.6737 43.1814C72.6555 41.3487 71.2639 39.7501 69.5888 38.4891C68.4778 37.6157 67.1661 37.0331 65.7731 36.7947C64.5068 36.6236 63.219 36.8593 62.0954 37.4679C60.9719 38.0765 60.0709 39.0266 59.5228 40.1809C58.9745 41.335 58.8074 42.6336 59.0455 43.889C59.2836 45.1444 59.9146 46.2916 60.8475 47.1649C62.2168 48.4488 64.0918 49.0202 65.8912 49.562C67.6908 50.1038 69.5593 50.7146 70.886 52.0445C72.2126 53.3745 72.7774 55.6568 71.6248 57.1475C70.3572 58.7895 66.8107 58.5728 64.7518 58.5728C59.9838 58.5728 57.9873 64.6707 62.5287 66.4144C66.9847 68.1219 72.0516 70.3319 76.2024 67.9709C79.8145 65.9251 81.0886 61.4526 82.0541 57.4267" stroke="#FFEDB3" stroke-width="2.62702" stroke-linecap="round" stroke-linejoin="round"/>
<path d="M42.5604 94.7421C48.3365 94.8833 61.3764 95.0475 69.4644 80.4051C72.052 75.7224 73.4837 70.1302 71.8977 65.0174C70.3969 60.1738 66.5057 56.3285 62.0201 53.9675C57.5344 51.6064 52.4642 50.5786 47.4335 49.9415C45.5716 49.7051 43.5882 49.5409 41.9036 50.3651C40.7281 50.9431 39.825 51.948 39.0205 52.9922C35.0143 58.1674 32.8896 64.5215 30.9555 70.7771C29.6879 74.8785 28.4632 79.2722 29.665 83.3934C30.013 84.5919 30.591 85.7708 31.5762 86.536C32.5613 87.3011 34.0028 87.5637 35.0701 86.9169C35.7084 86.4718 36.2072 85.8546 36.5084 85.1371C38.6132 80.8681 37.8842 75.6897 36.029 71.3025C34.1736 66.9153 31.3035 63.0504 29.005 58.8833C28.5321 58.0229 28.0658 57.0608 28.2792 56.1019C28.5386 54.9296 29.6946 54.217 30.7223 53.5931C35.4598 50.7244 39.5978 46.9666 42.9084 42.5268C44.373 40.5565 45.7588 38.3925 47.9294 37.2727C51.3609 35.4896 71.5101 35.3615 78.938 46.7957C80.8689 49.774 83.8637 57.248 84.4122 62.3279C85.0393 68.1041 82.9213 74.977 80.2187 77.9685C72.0289 87.0449 62.9066 77.4038 61.9445 74.9475C60.8059 72.02 60.2719 68.8924 60.3748 65.7529C60.4898 62.2525 61.3994 58.834 62.0168 55.3861C62.9983 49.7734 63.1829 44.0502 62.5651 38.3859C62.2368 35.4568 61.9544 22.9981 47.8242 24.0325C37.7628 24.7682 30.4728 35.112 29.3892 37.3647C26.4338 43.5184 35.7465 48.3194 36.758 48.7922C38.8465 49.7774 41.434 48.605 42.7968 46.7497C44.1595 44.8944 46.3006 42.5695 46.6586 40.2971C47.9524 32.068 40.5539 30.889 39.5032 30.8431C35.7749 30.6584 32.0439 31.1479 28.4894 32.2879C25.3632 33.3256 13.407 38.9179 23.2353 53.6719C24.3513 55.2547 25.6111 56.731 26.9985 58.082C28.555 59.6813 30.1346 61.3001 32.0359 62.4659C33.4282 63.3164 34.965 63.9107 36.3409 64.7809C37.6804 65.6831 38.9169 66.7291 40.0286 67.9005C44.9543 72.8098 58.8577 86.2897 46.1298 90.8869C41.4833 92.5748 36.0684 90.749 31.9636 87.994C26.5355 84.349 23.2583 77.8964 22.9628 71.3649C22.6673 64.8335 25.1859 58.3218 29.3727 53.3041C30.1017 52.4339 30.8898 51.5768 31.3167 50.5261C31.7436 49.4753 31.7239 48.1454 30.9325 47.3277C30.6418 47.0569 30.2994 46.8475 29.9259 46.7122C29.5524 46.5767 29.1554 46.5181 28.7587 46.5396C25.4125 46.5658 23.2353 50.063 22.2338 53.2582C21.1141 56.8244 20.7003 60.9619 22.7494 64.0946C24.8312 67.27 28.844 68.5278 31.6747 71.0628C33.7959 72.9641 35.2178 75.5616 37.3983 77.3972C39.8151 79.4332 42.9511 80.369 46.0248 81.0947C48.7963 81.7514 51.6893 82.2834 54.4772 81.6858C57.6296 81.0291 60.4603 79.1605 62.7852 76.9309C67.2412 72.662 67.0278 68.0647 66.4335 65.1947C65.5984 61.1886 64.3094 57.2908 62.5914 53.5766C60.782 49.6558 58.1222 45.6496 53.9748 44.4511C48.5139 42.8749 42.7049 47.1208 40.6492 52.4208C39.1145 56.3647 39.1887 60.7533 40.8561 64.643C41.7017 66.5618 42.9412 68.2815 44.494 69.6906C46.0468 71.0998 47.8784 72.167 49.8701 72.8229C51.2024 73.2948 52.6315 73.4257 54.0274 73.2038C55.2824 72.9605 56.4277 72.3245 57.2974 71.3874C58.1672 70.4504 58.7163 69.2609 58.8654 67.9912C59.0146 66.7214 58.7561 65.4372 58.1272 64.3241C57.4983 63.211 56.5317 62.3268 55.3671 61.7993C53.6562 61.021 51.6991 61.0834 49.8208 61.1425C47.9424 61.2016 45.9755 61.2311 44.2909 60.3971C42.6063 59.563 41.3355 57.5731 41.9528 55.7998C42.6294 53.8525 46.0543 52.9035 48.0082 52.2435C52.5233 50.7132 52.4577 44.2967 47.5944 44.103C42.8264 43.9158 37.3162 43.4463 34.1309 47.0157C31.3791 50.1123 31.5959 54.7588 31.9734 58.8833" stroke="#FFEDB3" stroke-width="2.62702" stroke-linecap="round" stroke-linejoin="round"/>
<path d="M87.0486 54.9517C88.4233 54.9517 89.5376 53.9239 89.5376 52.6562C89.5376 51.3886 88.4233 50.3608 87.0486 50.3608C85.6739 50.3608 84.5595 51.3886 84.5595 52.6562C84.5595 53.9239 85.6739 54.9517 87.0486 54.9517Z" fill="#ED5E3B"/>
<path d="M48.1359 96.1688C49.5106 96.1688 50.6251 95.1412 50.6251 93.8735C50.6251 92.6059 49.5106 91.5781 48.1359 91.5781C46.7613 91.5781 45.6469 92.6059 45.6469 93.8735C45.6469 95.1412 46.7613 96.1688 48.1359 96.1688Z" fill="#ED5E3B"/>
<path d="M89.9389 86.9833C91.3136 86.9833 92.4279 85.9557 92.4279 84.6879C92.4279 83.4202 91.3136 82.3926 89.9389 82.3926C88.5642 82.3926 87.4498 83.4202 87.4498 84.6879C87.4498 85.9557 88.5642 86.9833 89.9389 86.9833Z" fill="#ED5E3B"/>
<path d="M21.0942 62.8656C22.4689 62.8656 23.5833 61.8379 23.5833 60.5703C23.5833 59.3025 22.4689 58.2749 21.0942 58.2749C19.7195 58.2749 18.6051 59.3025 18.6051 60.5703C18.6051 61.8379 19.7195 62.8656 21.0942 62.8656Z" fill="#ED5E3B"/>
<path d="M47.4761 51.3207C48.8508 51.3207 49.9653 50.2931 49.9653 49.0253C49.9653 47.7576 48.8508 46.73 47.4761 46.73C46.1014 46.73 44.9871 47.7576 44.9871 49.0253C44.9871 50.2931 46.1014 51.3207 47.4761 51.3207Z" fill="#ED5E3B"/>
<path d="M91.7522 38.6093C93.1269 38.6093 94.2412 37.5816 94.2412 36.3139C94.2412 35.0463 93.1269 34.0186 91.7522 34.0186C90.3775 34.0186 89.263 35.0463 89.263 36.3139C89.263 37.5816 90.3775 38.6093 91.7522 38.6093Z" fill="#ED5E3B"/>
<path d="M42.7025 27.1107C44.0772 27.1107 45.1917 26.0831 45.1917 24.8155C45.1917 23.5478 44.0772 22.52 42.7025 22.52C41.3278 22.52 40.2134 23.5478 40.2134 24.8155C40.2134 26.0831 41.3278 27.1107 42.7025 27.1107Z" fill="#ED5E3B"/>
<path d="M66.7201 69.0561C68.0948 69.0561 69.2092 68.0284 69.2092 66.7607C69.2092 65.493 68.0948 64.4653 66.7201 64.4653C65.3455 64.4653 64.2311 65.493 64.2311 66.7607C64.2311 68.0284 65.3455 69.0561 66.7201 69.0561Z" fill="#ED5E3B"/>
<path d="M70.6844 101.47C71.3111 101.21 71.329 99.8155 70.7243 98.3543C70.1196 96.893 69.1213 95.9187 68.4946 96.178C67.8678 96.4374 67.85 97.8322 68.4546 99.2934C69.0593 100.755 70.0576 101.729 70.6844 101.47Z" fill="#FFC501"/>
<path d="M27.2271 43.7471C27.8539 43.4878 27.8718 42.093 27.2671 40.6317C26.6624 39.1705 25.6641 38.196 25.0374 38.4554C24.4106 38.7147 24.3927 40.1095 24.9974 41.5709C25.6022 43.0322 26.6004 44.0065 27.2271 43.7471Z" fill="#FFC501"/>
<path d="M97.7867 48.0972C98.4135 47.8379 98.4313 46.4431 97.8267 44.9818C97.222 43.5206 96.2238 42.5461 95.5971 42.8055C94.9703 43.0648 94.9524 44.4596 95.5571 45.921C96.1618 47.3823 97.16 48.3566 97.7867 48.0972Z" fill="#FFC501"/>
<path d="M26.3933 75.1618C27.763 74.371 28.5983 73.2538 28.2592 72.6664C27.9199 72.079 26.5348 72.2439 25.1652 73.0345C23.7957 73.8252 22.9603 74.9425 23.2995 75.5298C23.6386 76.1172 25.0238 75.9524 26.3933 75.1618Z" fill="#FFC501"/>
<path d="M62.6561 54.2184C64.0257 53.4276 64.861 52.3105 64.5219 51.723C64.1828 51.1356 62.7976 51.3005 61.4279 52.0912C60.0584 52.8818 59.2231 53.9991 59.5622 54.5864C59.9014 55.1739 61.2866 55.0091 62.6561 54.2184Z" fill="#FFC501"/>
<path d="M88.4159 75.1368C89.7854 74.3461 90.6207 73.2289 90.2816 72.6415C89.9425 72.0541 88.5573 72.2189 87.1878 73.0097C85.8182 73.8003 84.9829 74.9175 85.322 75.5049C85.6611 76.0924 87.0463 75.9276 88.4159 75.1368Z" fill="#FFC501"/>
<path d="M62.3041 19.4775C62.4213 18.8094 61.2538 18.0461 59.6962 17.7726C58.1386 17.4991 56.7808 17.8189 56.6634 18.487C56.5462 19.155 57.7138 19.9183 59.2714 20.1919C60.829 20.4654 62.1867 20.1455 62.3041 19.4775Z" fill="#FFC501"/>
</svg>
