<svg width="210" height="473" viewBox="0 0 210 473" fill="none" xmlns="http://www.w3.org/2000/svg">
<g clip-path="url(#clip0_1_1368)">
<path d="M175.026 2.9777V18.256C170.633 18.8224 161.891 19.2128 151.826 19.2128C141.056 19.2128 131.802 18.7688 127.768 18.1412V2.9777C127.768 2.23522 128.043 1.54632 128.503 1.03347C132.95 2.15102 141.347 2.90881 150.984 2.90881C161.111 2.90881 169.883 2.07448 174.116 0.857422C174.674 1.38558 175.019 2.15102 175.019 2.98536H175.026V2.9777Z" fill="#FFC501"/>
<path d="M178.195 35.7154C178.195 36.0216 176.948 36.5574 175.019 36.8024C170.625 37.3688 161.884 37.7592 151.818 37.7592C141.048 37.7592 131.794 37.3152 127.76 36.6875C126.367 36.4732 125.188 36.3507 125.135 35.8455C125.112 35.593 125.242 35.1796 126.329 35.0265V17.8959C130.363 18.5312 141.048 19.2124 151.811 19.2124C161.876 19.2124 171.903 18.3858 176.297 17.8193V34.7127C178.356 34.927 178.18 35.4169 178.18 35.7154H178.195Z" fill="#ED5E3B"/>
<path d="M175.026 36.8023V98.6196H127.776V36.6875C131.809 37.3228 141.064 37.7591 151.833 37.7591C161.899 37.7591 170.633 37.3764 175.034 36.8023H175.026Z" fill="#FF884D"/>
<path d="M209.992 182.206V450.709C209.992 455.922 202.69 472.172 152.691 472.172C98.9336 472.172 94.8615 455.914 94.8615 450.694V182.206C94.8615 169.255 100.181 157.544 108.754 149.147C113.691 143.536 126.957 127.691 127.799 118.139H174.988C175.731 127.125 188.827 141.699 194.905 148.014C204.182 156.48 210 168.666 210 182.214H209.992V182.206Z" fill="#FF884D"/>
<path d="M174.123 0.849643C169.89 2.0667 161.118 2.90103 150.991 2.90103C140.865 2.90103 132.95 2.14324 128.51 1.0257C129.054 0.390377 129.858 0 130.753 0H172.049C172.86 0 173.595 0.313832 174.123 0.849643Z" fill="#ED5E3B"/>
<path d="M115.827 210.796V319.78H115.429C110.568 318.708 105.8 317.338 101.199 315.616V208.714C104.743 209.334 109.688 210.099 115.827 210.796Z" fill="#FFC501"/>
<path d="M101.199 208.713V315.615C99.0331 314.812 96.9128 313.924 94.8308 312.959V207.466C94.8308 207.466 97.0583 207.994 101.199 208.713Z" fill="#FEDC67"/>
<path d="M209.992 208.048V315.065C209.992 315.065 159.197 329.47 115.429 319.78H115.827V210.796C136.349 213.146 170.25 214.799 209.992 208.048Z" fill="#FEDC67"/>
<path d="M175.026 93.5146V118.131C175.026 118.131 167.648 121.346 152.867 121.346C135.001 121.346 127.768 118.131 127.768 118.131V93.5146C127.768 93.5146 138.147 96.1478 151.619 96.1478C163.461 96.1478 175.026 93.5146 175.026 93.5146Z" fill="#ED5E3B"/>
<path d="M102.179 462.971L105.593 458.225C109.481 454.888 111.694 450.004 111.64 444.884L110.04 306.254C109.964 299.342 107.468 292.667 102.983 287.401L94.4482 277.358L95.8106 456.61L102.179 462.979V462.971Z" fill="#FFC501"/>
<path d="M103.496 448.833C103.496 448.833 101.911 453.448 91.8686 457.398C84.3366 460.368 72.0513 462.971 52.1038 462.971C32.1563 462.971 20.0393 460.429 12.3619 457.505C1.93657 453.525 0.130126 448.841 0.130126 448.841L0 306.851C0 293.532 8.04482 290.218 10.8234 283.964C15.6763 286.207 30.878 289.016 51.9583 289.016C71.5001 289.016 88.0337 286.995 93.5067 284.209C95.1906 289.873 103.373 295.453 103.373 306.828L103.503 448.841H103.496V448.833Z" fill="#FFC501"/>
<path d="M91.8686 457.398C91.4552 464.479 73.8194 470.174 52.1191 470.174C30.4187 470.174 12.936 464.525 12.3619 457.498C20.0393 460.422 32.3783 462.963 52.1038 462.963C71.8293 462.963 84.3366 460.368 91.8686 457.391V457.398Z" fill="#E5AA03"/>
<path d="M95.4203 282.196C95.4203 282.9 94.7467 283.573 93.499 284.209C88.0337 286.987 71.5001 289.016 51.9507 289.016C30.8627 289.016 13.2881 286.658 9.3231 283.528C8.77198 283.107 8.48877 282.655 8.48877 282.203C8.48877 281.392 9.39199 280.611 11.053 279.899C17.3909 282.425 33.1208 284.224 51.5144 284.224C69.908 284.224 86.388 282.349 92.4197 279.708C94.3486 280.489 95.4126 281.323 95.4126 282.203H95.4203V282.196Z" fill="#FFDC67"/>
<path d="M102.86 302.074C102.86 302.074 102.807 302.105 102.776 302.12C96.0862 305.519 75.8632 307.991 51.9583 307.991C28.0535 307.991 6.34552 305.327 0.459259 301.722C0.803709 299.885 1.33187 298.285 1.96718 296.854C4.53142 291.159 8.91742 288.25 10.8157 283.956C15.6686 286.199 30.8704 289.008 51.9583 289.008C71.5001 289.008 88.0337 286.987 93.5067 284.201C94.6012 287.89 98.4591 291.549 101.008 296.793C101.789 298.392 102.447 300.138 102.86 302.082V302.074Z" fill="#FFD134"/>
<path d="M92.4274 279.693C90.4755 280.55 87.4673 281.323 83.6477 281.974C75.6871 280.566 64.0447 279.67 51.0781 279.67C38.1115 279.67 26.8901 280.527 18.9447 281.897C15.6227 281.308 12.9284 280.627 11.0607 279.884C17.0924 277.251 33.1361 275.368 51.9583 275.368C70.7806 275.368 86.0895 277.167 92.4274 279.693Z" fill="#FFD134"/>
<path d="M83.6477 281.974C75.7024 283.344 64.2514 284.209 51.522 284.209C38.7927 284.209 26.9054 283.321 18.9447 281.905C26.89 280.543 38.3487 279.678 51.0781 279.678C63.8074 279.678 75.6871 280.566 83.6477 281.982V281.974Z" fill="#FFC501"/>
<path d="M51.943 377.302C51.943 409.642 35.7615 435.851 15.7988 435.851C10.1804 435.851 4.86056 433.777 0.114803 430.072L0.0229492 324.609C4.79167 320.851 10.1421 318.738 15.8064 318.738C35.7692 318.738 51.9507 344.955 51.9507 377.295H51.943V377.302Z" fill="#ED5E3B"/>
<path opacity="0.8" d="M81.5275 340.576C75.4116 340.944 80.0425 328.72 81.5275 328.406C82.7981 328.138 87.2683 340.232 81.5275 340.576Z" fill="#CEC095"/>
<path opacity="0.8" d="M82.025 339.497C75.8632 339.872 80.5324 327.549 82.025 327.227C83.3033 326.952 87.8118 339.145 82.025 339.497Z" fill="#FEF9E5"/>
<path opacity="0.8" d="M50.6647 439.035C44.5488 439.403 49.1798 427.179 50.6647 426.865C51.9354 426.597 56.4056 438.691 50.6647 439.035Z" fill="#CEC095"/>
<path opacity="0.8" d="M51.1623 437.964C45.0005 438.339 49.6697 426.016 51.1623 425.694C52.4406 425.418 56.949 437.612 51.1623 437.964Z" fill="#FEF9E5"/>
<path opacity="0.8" d="M81.5581 325.444C81.3667 325.597 81.0912 325.505 81.0376 325.267C80.7697 324.073 79.346 321.57 81.7112 316.748C81.7112 316.748 81.2825 318.945 82.27 321.417C83.2268 323.805 82.1092 325.015 81.5581 325.451V325.444Z" fill="#CEC095"/>
<path opacity="0.8" d="M81.5581 324.648C81.3667 324.801 81.0912 324.709 81.0376 324.472C80.7697 323.277 79.346 320.774 81.7112 315.952C81.7112 315.952 81.2825 318.149 82.27 320.621C83.2268 323.01 82.1092 324.219 81.5581 324.655V324.648Z" fill="#FEF9E5"/>
<path opacity="0.8" d="M50.4887 422.64C50.2973 422.793 50.0218 422.701 49.9682 422.464C49.7003 421.27 48.2766 418.767 50.6418 413.944C50.6418 413.944 50.2131 416.141 51.2006 418.614C52.1574 421.002 51.0398 422.211 50.4887 422.647V422.64Z" fill="#CEC095"/>
<path opacity="0.8" d="M50.4887 421.844C50.2973 421.997 50.0218 421.905 49.9682 421.668C49.7003 420.474 48.2766 417.971 50.6418 413.148C50.6418 413.148 50.2131 415.345 51.2006 417.818C52.1574 420.206 51.0398 421.415 50.4887 421.852V421.844Z" fill="#FEF9E5"/>
</g>
<defs>
<clipPath id="clip0_1_1368">
<rect width="210" height="472.172" fill="white"/>
</clipPath>
</defs>
</svg>
