<svg width="15" height="16" viewBox="0 0 15 16" fill="none" xmlns="http://www.w3.org/2000/svg">
<g clip-path="url(#clip0_1_1334)">
<path d="M6.848 7.64065L0.0630035 14.6706L0.0640035 14.6746C0.173409 15.0588 0.405792 15.3964 0.725513 15.6357C1.04523 15.875 1.43464 16.0029 1.834 15.9996C2.173 15.9996 2.491 15.9096 2.764 15.7536L2.786 15.7406L10.423 11.4396L6.848 7.63965V7.64065Z" fill="#EA4335"/>
<path d="M13.713 6.44422L13.706 6.44022L10.409 4.57422L6.694 7.80022L10.422 11.4382L13.702 9.59122C14.277 9.28822 14.667 8.69722 14.667 8.01422C14.667 7.33722 14.282 6.74822 13.713 6.44422Z" fill="#FBBC04"/>
<path d="M0.062 1.33008C0.022 1.47608 0 1.63008 0 1.79008V14.2101C0 14.3701 0.021 14.5251 0.062 14.6701L7.082 7.82108L0.061 1.33008H0.062Z" fill="#4285F4"/>
<path d="M6.898 8L10.41 4.573L2.78 0.256C2.49302 0.0881304 2.16648 -0.000234361 1.834 4.66819e-07C0.986004 4.66819e-07 0.270004 0.563001 0.0630035 1.327V1.329L6.897 8H6.898Z" fill="#34A853"/>
</g>
<defs>
<clipPath id="clip0_1_1334">
<rect width="15" height="16" fill="white"/>
</clipPath>
</defs>
</svg>
