<svg width="138" height="130" viewBox="0 0 138 130" fill="none" xmlns="http://www.w3.org/2000/svg">
<path d="M36.8164 3.98205L107.58 18.5082C108.397 18.6757 109.144 19.084 109.726 19.6803C110.308 20.277 110.698 21.0344 110.846 21.8549C112.817 32.6415 113.917 77.5818 117.232 96.1138C117.776 99.1879 123.067 110.438 123.067 110.438C123.233 110.773 123.263 111.159 123.151 111.516C123.038 111.873 122.792 112.172 122.464 112.351C122.247 112.469 122.002 112.529 121.755 112.526L109.192 111.812C108.31 111.793 107.434 111.955 106.618 112.29C105.803 112.625 105.065 113.125 104.451 113.757L94.7557 123.727C93.952 124.344 93.0148 124.764 92.0194 124.953C91.024 125.142 89.9981 125.096 89.024 124.817L17.024 103.625C16.6612 103.521 16.3245 103.342 16.0363 103.098C15.7481 102.854 15.5149 102.552 15.3522 102.212C15.1891 101.871 15.1 101.5 15.0908 101.123C15.0815 100.745 15.1524 100.37 15.2986 100.022L21.3242 85.6051C22.7397 82.2038 21.5257 77.9252 22.1683 58.8263C22.9409 35.8573 34.3938 5.65572 34.3938 5.65572C34.4344 5.38249 34.5306 5.12049 34.6765 4.88596C34.8225 4.65142 35.015 4.44935 35.2422 4.29226C35.4693 4.13539 35.7262 4.02689 35.9971 3.97353C36.2679 3.92016 36.5467 3.92306 36.8164 3.98205Z" fill="#B5865C" stroke="black" stroke-width="1.40135" stroke-miterlimit="10"/>
<path d="M122.207 111.957C122.072 112.113 121.905 112.237 121.717 112.322C121.529 112.406 121.325 112.449 121.119 112.448L109.198 111.816C108.316 111.797 107.44 111.96 106.624 112.294C105.809 112.629 105.071 113.129 104.456 113.762L94.7563 123.731C94.0487 124.275 93.5423 123.66 92.7096 123.872L104.277 103.819V103.623L122.207 111.957Z" fill="#421E0B" stroke="black" stroke-width="1.40135" stroke-miterlimit="10"/>
<path d="M117.046 94.9807C117.127 98.3167 123.033 110.439 123.033 110.439C123.317 110.984 122.854 111.529 122.489 111.954L104.265 103.631L108.559 22.8911L109.104 19.1846C109.56 19.4955 109.95 19.8942 110.251 20.3574C110.552 20.8206 110.758 21.339 110.857 21.8825C112.811 32.642 116.54 74.3175 117.046 94.9807Z" fill="#5B2A0E" stroke="black" stroke-width="1.40135" stroke-miterlimit="10"/>
<path d="M31.5092 88.001L81.398 101.197" stroke="#5B2A0E" stroke-width="1.40135" stroke-miterlimit="10" stroke-linecap="round"/>
<path d="M108.555 22.8936L104.287 103.655V103.852L92.453 124.275L92.0337 124.362C91.7451 118.666 94.1784 109.357 95.2508 105.372C95.4988 104.416 95.6016 103.427 95.5558 102.44C95.4849 100.668 95.9094 98.0468 96.6115 97.6707C97.5369 97.1636 98.2938 95.6976 98.4459 94.6511L108.555 22.8936Z" fill="#825C43" stroke="black" stroke-width="1.40135" stroke-miterlimit="10"/>
<g style="mix-blend-mode:multiply">
<path d="M37.1223 5.59532L104.754 18.6729C105.411 18.8001 106.037 19.0556 106.595 19.4247C107.153 19.7938 107.634 20.2693 108.008 20.8241C108.765 21.9453 109.047 23.3211 108.79 24.6496L107.436 31.6711C106.99 33.9866 105.643 36.0303 103.69 37.3529C102.724 38.0072 101.639 38.4646 100.496 38.699C99.3527 38.9333 98.1748 38.9399 97.0292 38.7185L36.838 27.0792C35.6921 26.8575 34.6012 26.4121 33.6275 25.7686C32.6539 25.125 31.8166 24.2959 31.1636 23.3286C29.8433 21.3737 29.3527 18.9748 29.7995 16.6586L31.1528 9.64257C31.4078 8.31343 32.1801 7.13992 33.2999 6.37994C33.8542 6.00424 34.4771 5.74156 35.133 5.60692C35.7889 5.47229 36.4649 5.46834 37.1223 5.59532Z" fill="#CC966A"/>
</g>
<path d="M36.9113 0.985981L107.461 14.6283C108.131 14.758 108.77 15.0186 109.339 15.3952C109.909 15.7719 110.399 16.2571 110.781 16.8232C111.554 17.9672 111.841 19.3709 111.579 20.7263L110.278 27.4746C109.823 29.8355 108.449 31.9192 106.459 33.2679C104.468 34.6156 102.026 35.1162 99.6668 34.6603L36.7012 22.4847C35.5329 22.2585 34.4207 21.8044 33.428 21.1482C32.4353 20.492 31.5817 19.6467 30.9159 18.6604C29.5699 16.6672 29.0698 14.2214 29.5253 11.8598L30.8309 5.08961C31.0967 3.74044 31.8856 2.55125 33.0252 1.78169C34.1642 1.01265 35.5617 0.726517 36.9113 0.985981Z" fill="#CC966A" stroke="black" stroke-width="1.40135" stroke-miterlimit="10"/>
<path d="M65.8374 40.7435C71.0304 40.7435 75.24 36.5336 75.24 31.341C75.24 26.1481 71.0304 21.9385 65.8374 21.9385C60.6445 21.9385 56.4349 26.1481 56.4349 31.341C56.4349 36.5336 60.6445 40.7435 65.8374 40.7435Z" fill="#0C513F" stroke="black" stroke-width="1.40135" stroke-miterlimit="10"/>
</svg>
