<svg width="24" height="24" viewBox="0 0 24 24" fill="none" xmlns="http://www.w3.org/2000/svg">
<path d="M13.733 1.22299L14.312 2.84999C14.3983 3.09245 14.5345 3.31411 14.7118 3.50065C14.8891 3.68719 15.1036 3.83446 15.3414 3.93294C15.5791 4.03143 15.8349 4.07893 16.0922 4.0724C16.3495 4.06586 16.6025 4.00542 16.835 3.89499L18.395 3.15399C19.958 2.41099 21.589 4.04199 20.846 5.60499L20.105 7.16499C19.9942 7.3974 19.9335 7.6505 19.9269 7.90787C19.9202 8.16523 19.9676 8.42114 20.0661 8.659C20.1646 8.89686 20.312 9.11137 20.4987 9.28863C20.6855 9.46589 20.9073 9.60195 21.15 9.68799L22.777 10.266C24.407 10.846 24.407 13.152 22.777 13.733L21.15 14.312C20.9075 14.3983 20.6859 14.5345 20.4993 14.7118C20.3128 14.8891 20.1655 15.1036 20.067 15.3414C19.9685 15.5791 19.921 15.8349 19.9276 16.0922C19.9341 16.3495 19.9946 16.6025 20.105 16.835L20.846 18.395C21.589 19.958 19.958 21.589 18.395 20.846L16.835 20.105C16.6026 19.9944 16.3496 19.9338 16.0923 19.9271C15.8351 19.9204 15.5792 19.9678 15.3414 20.0662C15.1036 20.1646 14.8891 20.3118 14.7118 20.4983C14.5345 20.6849 14.3983 20.9065 14.312 21.149L13.733 22.777C13.153 24.407 10.847 24.407 10.267 22.777L9.68799 21.149C9.60158 20.9066 9.46531 20.6851 9.28795 20.4986C9.1106 20.3122 8.89611 20.165 8.65835 20.0667C8.42059 19.9683 8.16483 19.9208 7.9076 19.9274C7.65037 19.9341 7.39739 19.9945 7.16499 20.105L5.60499 20.845C4.04199 21.589 2.41099 19.958 3.15399 18.395L3.89499 16.835C4.00576 16.6024 4.06647 16.3492 4.07318 16.0917C4.07989 15.8342 4.03246 15.5781 3.93395 15.3401C3.83545 15.1021 3.68806 14.8874 3.50134 14.71C3.31461 14.5325 3.09271 14.3963 2.84999 14.31L1.22299 13.732C-0.407012 13.152 -0.407012 10.845 1.22299 10.265L2.84999 9.68699C3.09271 9.601 3.31469 9.46502 3.50155 9.28784C3.68842 9.11067 3.83601 8.89624 3.93479 8.65844C4.03357 8.42063 4.08134 8.16473 4.075 7.90731C4.06866 7.64988 4.00836 7.39664 3.89799 7.16399L3.15599 5.60399C2.41299 4.03999 4.04399 2.40899 5.60799 3.15199L7.16799 3.89399C7.40034 4.00427 7.65324 4.06462 7.91035 4.07114C8.16747 4.07765 8.42309 4.03019 8.66074 3.93182C8.89838 3.83345 9.11275 3.68635 9.29004 3.50001C9.46732 3.31367 9.60357 3.09223 9.68999 2.84999L10.268 1.22299C10.846 -0.407012 13.152 -0.407012 13.732 1.22299H13.733Z" fill="#FFC501"/>
</svg>
