<svg width="14" height="16" viewBox="0 0 14 16" fill="none" xmlns="http://www.w3.org/2000/svg">
<g clip-path="url(#clip0_1_1343)">
<path d="M11.802 8.509C11.8154 7.8919 11.9852 7.2883 12.2955 6.75469C12.6057 6.22109 13.0463 5.77494 13.576 5.458C13.228 4.98358 12.7768 4.5944 12.2564 4.31983C11.736 4.04526 11.16 3.89247 10.572 3.873C9.30799 3.743 8.08299 4.611 7.43899 4.611C6.78299 4.611 5.79099 3.885 4.72299 3.907C3.33199 3.951 2.03399 4.723 1.35699 5.911C-0.098006 8.371 0.986994 11.987 2.38199 13.976C3.07899 14.95 3.89399 16.038 4.96199 15.999C6.00499 15.957 6.39499 15.349 7.65499 15.349C8.90299 15.349 9.26899 15.999 10.358 15.975C11.478 15.957 12.183 14.996 12.857 14.013C13.3567 13.3216 13.7423 12.5545 13.999 11.741C12.683 11.198 11.804 9.904 11.802 8.509ZM9.74699 2.565C10.357 1.849 10.658 0.929 10.585 0C9.65688 0.0932412 8.79653 0.528049 8.17099 1.22C7.87108 1.55415 7.6406 1.9446 7.49296 2.36864C7.34532 2.79268 7.28347 3.24184 7.31099 3.69C7.77481 3.69333 8.23364 3.59422 8.65473 3.39975C9.07582 3.20528 9.44878 2.92025 9.74699 2.565Z" fill="#0C513F"/>
</g>
<defs>
<clipPath id="clip0_1_1343">
<rect width="14" height="16" fill="white"/>
</clipPath>
</defs>
</svg>
