<svg width="20" height="20" viewBox="0 0 20 20" fill="none" xmlns="http://www.w3.org/2000/svg">
<path d="M10.986 0.978L11.4492 2.2796C11.5182 2.47357 11.6272 2.6509 11.7691 2.80013C11.9109 2.94936 12.0825 3.06718 12.2727 3.14596C12.4629 3.22475 12.6675 3.26276 12.8734 3.25753C13.0792 3.2523 13.2816 3.20395 13.4676 3.1156L14.7156 2.5228C15.966 1.9284 17.2708 3.2332 16.6764 4.4836L16.0836 5.7316C15.995 5.91753 15.9464 6.12001 15.9411 6.3259C15.9357 6.5318 15.9737 6.73652 16.0525 6.92681C16.1313 7.1171 16.2492 7.28871 16.3986 7.43051C16.548 7.57232 16.7255 7.68117 16.9196 7.75L18.2212 8.2124C19.5252 8.6764 19.5252 10.5212 18.2212 10.986L16.9196 11.4492C16.7256 11.5182 16.5483 11.6272 16.3991 11.7691C16.2498 11.9109 16.132 12.0825 16.0532 12.2727C15.9745 12.4629 15.9364 12.6675 15.9417 12.8734C15.9469 13.0792 15.9953 13.2816 16.0836 13.4676L16.6764 14.7156C17.2708 15.966 15.966 17.2708 14.7156 16.6764L13.4676 16.0836C13.2817 15.9951 13.0793 15.9466 12.8735 15.9413C12.6677 15.9359 12.463 15.9738 12.2728 16.0526C12.0825 16.1313 11.9109 16.2491 11.769 16.3983C11.6272 16.5475 11.5182 16.7248 11.4492 16.9188L10.986 18.2212C10.522 19.5252 8.6772 19.5252 8.2132 18.2212L7.75 16.9188C7.68088 16.7249 7.57185 16.5477 7.42997 16.3985C7.28809 16.2494 7.1165 16.1316 6.92629 16.0529C6.73608 15.9742 6.53148 15.9363 6.32569 15.9416C6.11991 15.9469 5.91752 15.9952 5.7316 16.0836L4.4836 16.6756C3.2332 17.2708 1.9284 15.966 2.5228 14.7156L3.1156 13.4676C3.20422 13.2816 3.25278 13.079 3.25815 12.873C3.26352 12.667 3.22558 12.4621 3.14677 12.2717C3.06797 12.0813 2.95006 11.9095 2.80068 11.7676C2.6513 11.6256 2.47378 11.5166 2.2796 11.4476L0.978 10.9852C-0.326 10.5212 -0.326 8.6756 0.978 8.2116L2.2796 7.7492C2.47378 7.68041 2.65136 7.57163 2.80085 7.42988C2.95034 7.28814 3.06842 7.1166 3.14745 6.92636C3.22647 6.73611 3.26468 6.5314 3.25961 6.32545C3.25454 6.11951 3.20629 5.91693 3.118 5.7308L2.5244 4.4828C1.93 3.2316 3.2348 1.9268 4.486 2.5212L5.734 3.1148C5.91988 3.20303 6.1222 3.25131 6.32789 3.25652C6.53358 3.26173 6.73808 3.22376 6.9282 3.14507C7.11831 3.06637 7.28981 2.94869 7.43164 2.79961C7.57347 2.65054 7.68246 2.4734 7.7516 2.2796L8.214 0.978C8.6764 -0.326 10.5212 -0.326 10.9852 0.978H10.986Z" fill="#FFB3CE"/>
</svg>
