<svg width="48" height="48" viewBox="0 0 48 48" fill="none" xmlns="http://www.w3.org/2000/svg">
<rect width="48" height="48" rx="24" fill="#0C513F"/>
<g clip-path="url(#clip0_1_584)">
<path d="M23.348 23.641L16.563 30.671L16.564 30.675C16.6734 31.0591 16.9058 31.3967 17.2255 31.6361C17.5452 31.8754 17.9346 32.0033 18.334 32C18.673 32 18.991 31.91 19.264 31.754L19.286 31.741L26.923 27.44L23.348 23.64V23.641Z" fill="#EA4335"/>
<path d="M30.213 22.444L30.206 22.44L26.909 20.574L23.194 23.8L26.922 27.438L30.202 25.591C30.777 25.288 31.167 24.697 31.167 24.014C31.167 23.337 30.782 22.748 30.213 22.444Z" fill="#FBBC04"/>
<path d="M16.562 17.33C16.522 17.476 16.5 17.63 16.5 17.79V30.21C16.5 30.37 16.521 30.525 16.562 30.67L23.582 23.821L16.561 17.33H16.562Z" fill="#4285F4"/>
<path d="M23.398 24L26.91 20.573L19.28 16.256C18.993 16.0881 18.6665 15.9998 18.334 16C17.486 16 16.77 16.563 16.563 17.327V17.329L23.397 24H23.398Z" fill="#34A853"/>
</g>
<defs>
<clipPath id="clip0_1_584">
<rect width="15" height="16" fill="white" transform="translate(16.5 16)"/>
</clipPath>
</defs>
</svg>
