<svg width="128" height="128" viewBox="0 0 128 128" fill="none" xmlns="http://www.w3.org/2000/svg">
<path d="M64 124C97.137 124 124 97.137 124 64C124 30.863 97.137 4 64 4C30.863 4 4 30.863 4 64C4 97.137 30.863 124 64 124Z" fill="#0C513F" stroke="white" stroke-width="7.09" stroke-miterlimit="10"/>
<path d="M23.383 54.7835C23.033 56.3225 21.783 57.3595 19.759 56.8955C17.729 56.4315 17.041 54.9585 17.413 53.4255C17.778 51.8915 19.011 50.8495 21.036 51.3125C23.06 51.7765 23.732 53.2505 23.382 54.7835H23.383ZM18.116 53.5835C17.855 54.6585 18.351 55.6515 19.961 56.0165C21.576 56.3875 22.433 55.7005 22.679 54.6255C22.924 53.5455 22.444 52.5565 20.834 52.1915C19.214 51.8205 18.368 52.5185 18.116 53.5825V53.5835ZM23.121 39.4165L23.58 38.5985L27.76 43.4285L27.345 44.1695L21.042 43.1325L21.5 42.3145L26.483 43.1985L23.121 39.4225V39.4165ZM32.141 29.5835L29.953 31.7725L31.263 33.0825L33.118 31.2265L33.658 31.7665L31.803 33.6215L33.118 34.9375L35.306 32.7485L35.846 33.2885L33.058 36.0775L28.813 31.8325L31.601 29.0435L32.141 29.5835ZM45.173 26.8605L44.338 27.3355L42.374 26.1185C42.319 26.1615 42.259 26.1945 42.199 26.2275L41.048 26.8875L42.052 28.6445L41.315 29.0645L38.33 23.8545L40.224 22.7735C41.414 22.0905 42.483 22.2985 43.116 23.4065C43.574 24.2085 43.514 24.9665 42.996 25.5785L45.168 26.8545L45.173 26.8605ZM39.421 24.0445L40.698 26.2765L41.85 25.6165C42.625 25.1745 42.75 24.4765 42.38 23.8315C42.008 23.1815 41.348 22.9415 40.573 23.3845L39.422 24.0445H39.421ZM55.82 23.2475L54.87 21.7905L52.595 22.3355L52.409 24.0655L51.498 24.2835L52.3 17.9155L53.124 17.7195L56.726 23.0295L55.815 23.2475H55.82ZM52.682 21.5715L54.45 21.1465L52.977 18.8865L52.682 21.5665V21.5715ZM64.496 21.7745L67.334 21.8785L67.306 22.6145L63.623 22.4785L63.847 16.4805L64.693 16.5135L64.496 21.7735V21.7745ZM75.104 23.2865L77.822 24.0995L77.609 24.8095L74.079 23.7495L75.803 17.9985L76.616 18.2445L75.104 23.2865ZM95.192 34.0405C94.318 34.9725 93.352 34.7925 92.354 33.8545L90.689 32.2935L94.804 27.9225L96.277 29.3085C97.254 30.2255 97.429 31.0385 96.67 31.8465C96.245 32.2935 95.84 32.4195 95.393 32.2765C95.775 32.8605 95.792 33.4065 95.192 34.0455V34.0395V34.0405ZM92.834 33.3405C93.484 33.9525 94.062 34.0015 94.574 33.4555C95.088 32.9105 94.941 32.4025 94.291 31.7915L93.249 30.8095L91.792 32.3595L92.834 33.3415V33.3405ZM94.94 29.0135L93.707 30.3235L94.564 31.1255C95.154 31.6765 95.666 31.7965 96.119 31.3165C96.572 30.8365 96.387 30.3665 95.803 29.8165L94.946 29.0135H94.941H94.94ZM104.813 41.3885L103.197 38.7475L101.615 39.7135L102.985 41.9505L102.335 42.3485L100.966 40.1115L99.378 41.0825L100.993 43.7245L100.343 44.1225L98.286 40.7555L103.405 37.6175L105.462 40.9845L104.813 41.3825V41.3885ZM105.014 50.6855C104.277 50.9695 104.228 51.7445 104.403 52.3455C104.583 52.9725 105.03 53.5945 105.876 53.3485C107.524 52.8735 105.014 49.9655 107.366 49.2885C108.381 48.9945 109.271 49.6325 109.593 50.8225C109.865 51.8325 109.571 52.7535 108.752 53.1355L108.392 52.4105C109.003 52.1535 109.107 51.5425 108.954 51.0075C108.79 50.4405 108.365 49.8945 107.606 50.1125C106.133 50.5385 108.632 53.4525 106.116 54.1725C105.358 54.3915 104.206 54.2655 103.71 52.5465C103.241 50.9145 103.95 50.2165 104.654 49.9385L105.014 50.6915V50.6855ZM110.646 66.0485L110.614 64.1165L105.375 64.2045L105.358 63.3525L110.597 63.2705L110.564 61.3335L111.328 61.3235L111.405 66.0375L110.641 66.0485H110.646ZM107.295 83.3585L106.946 84.1325L101.483 81.6445L101.833 80.8695L107.295 83.3585ZM100.36 94.5325L99.836 95.2035L95.105 91.5035L95.628 90.8335L101.222 91.3405L97.506 88.4315L98.029 87.7605L102.761 91.4605L102.237 92.1305L96.627 91.6075L100.365 94.5325H100.36ZM79.787 105.742C78.947 103.881 79.809 102.44 81.337 101.753L83.187 100.918L85.653 106.386L83.803 107.221C82.281 107.908 80.627 107.603 79.787 105.742ZM81.626 102.402C80.54 102.893 79.923 103.903 80.589 105.382C81.26 106.866 82.428 107.063 83.509 106.577L84.589 106.091L82.706 101.917L81.626 102.402ZM68.78 110.63L71.842 110.171L71.569 108.338L68.972 108.725L68.857 107.972L71.455 107.585L71.182 105.746L68.121 106.204L68.006 105.451L71.908 104.867L72.792 110.804L68.89 111.388L68.775 110.635L68.781 110.63H68.78ZM60.148 106.193L57.326 105.888L57.408 105.156L61.075 105.555L60.425 111.519L59.58 111.426L60.148 106.193ZM48.748 109.168L47.945 108.89L49.899 103.215L50.701 103.493L48.748 109.168ZM36.71 103.16L35.924 102.652L40.999 98.7835L41.714 99.2425L40.289 105.463L39.504 104.955L40.694 100.038L36.715 103.16H36.71ZM27.448 93.5565L29.5 95.8765L30.886 94.6485L29.146 92.6835L29.718 92.1765L31.458 94.1405L32.85 92.9075L30.799 90.5875L31.372 90.0805L33.986 93.0325L29.489 97.0105L26.875 94.0585L27.448 93.5515V93.5565ZM25.538 80.3655L25.963 81.2285L24.626 83.1105C24.664 83.1705 24.697 83.2305 24.724 83.2905L25.314 84.4855L27.131 83.5905L27.508 84.3545L22.122 87.0065L21.162 85.0535C20.555 83.8205 20.828 82.7665 21.974 82.2045C22.804 81.7955 23.557 81.9045 24.135 82.4615L25.543 80.3715L25.538 80.3655ZM22.368 85.9315L24.675 84.7965L24.086 83.6015C23.693 82.7995 23.006 82.6305 22.334 82.9635C21.664 83.2905 21.379 83.9405 21.772 84.7425L22.362 85.9375L22.367 85.9315H22.368ZM16.769 71.0465L16.589 70.0595L19.945 71.5655L22.859 71.0415L23.012 71.8875L20.098 72.4115L17.478 75.0085L17.298 74.0205L19.258 72.1275L16.764 71.0525L16.769 71.0465Z" fill="white"/>
<path d="M64 44.1543L70.45 57.2183L84.874 59.3143L74.434 69.4863L76.901 83.8493L64 77.0663L51.104 83.8493L53.566 69.4863L43.132 59.3143L57.555 57.2183L64 44.1543Z" fill="#FFC501"/>
</svg>
