<svg width="36" height="36" viewBox="0 0 36 36" fill="none" xmlns="http://www.w3.org/2000/svg">
<path d="M15.6445 4.7041L17.2055 3.14316C17.8664 2.48223 18.9352 2.48223 19.5891 3.14316L33.2578 16.8049C33.9188 17.4658 33.9188 18.5346 33.2578 19.1885L19.5891 32.8572C18.9281 33.5182 17.8594 33.5182 17.2055 32.8572L15.6445 31.2963C14.9766 30.6283 14.9906 29.5385 15.6727 28.8846L24.1453 20.8127H3.9375C3.00234 20.8127 2.25 20.0604 2.25 19.1252V16.8752C2.25 15.94 3.00234 15.1877 3.9375 15.1877H24.1453L15.6727 7.11582C14.9836 6.46191 14.9695 5.37207 15.6445 4.7041Z" fill="#8C77EC"/>
</svg>
