<svg width="48" height="48" viewBox="0 0 48 48" fill="none" xmlns="http://www.w3.org/2000/svg">
<rect width="48" height="48" rx="24" fill="#0C513F"/>
<g clip-path="url(#clip0_1_591)">
<path d="M27.6375 19.2141C26.0625 19.2141 25.3969 19.9875 24.3 19.9875C23.175 19.9875 22.3172 19.2188 20.9531 19.2188C19.6172 19.2188 18.1922 20.0579 17.2875 21.4875C16.0172 23.5032 16.2328 27.3 18.2906 30.5344C19.0266 31.6922 20.0109 32.9907 21.3 33.0047H21.3234C22.4438 33.0047 22.7766 32.25 24.3188 32.2407H24.3422C25.8609 32.2407 26.1656 33 27.2813 33H27.3047C28.5938 32.986 29.6297 31.5469 30.3656 30.3938C30.8953 29.5641 31.0922 29.1469 31.5 28.2094C28.5234 27.0469 28.0453 22.7063 30.9891 21.0422C30.0891 19.8844 28.8281 19.2141 27.6375 19.2141Z" fill="white"/>
<path d="M27.2906 15C26.3531 15.0656 25.2609 15.6797 24.6187 16.4812C24.0375 17.2078 23.5593 18.2859 23.7468 19.3312H23.8218C24.8203 19.3312 25.8422 18.7125 26.4375 17.9203C27.014 17.1656 27.45 16.0969 27.2906 15Z" fill="white"/>
</g>
<defs>
<clipPath id="clip0_1_591">
<rect width="24" height="24" fill="white" transform="translate(12 12)"/>
</clipPath>
</defs>
</svg>
