<svg width="60" height="60" viewBox="0 0 60 60" fill="none" xmlns="http://www.w3.org/2000/svg">
<g clip-path="url(#clip0_1_754)">
<path d="M52.1602 26.0742L54.7617 28.6758C55.8633 29.7773 55.8633 31.5586 54.7617 32.6484L31.9922 55.4297C30.8906 56.5312 29.1094 56.5312 28.0195 55.4297L5.23828 32.6484C4.13672 31.5469 4.13672 29.7656 5.23828 28.6758L7.83984 26.0742C8.95312 24.9609 10.7695 24.9844 11.8594 26.1211L25.3125 40.2422V6.5625C25.3125 5.00391 26.5664 3.75 28.125 3.75H31.875C33.4336 3.75 34.6875 5.00391 34.6875 6.5625V40.2422L48.1406 26.1211C49.2305 24.9727 51.0469 24.9492 52.1602 26.0742Z" fill="#D1D5DB"/>
</g>
<defs>
<clipPath id="clip0_1_754">
<rect width="60" height="60" fill="white"/>
</clipPath>
</defs>
</svg>
